<svg xmlns="http://www.w3.org/2000/svg" version="1.1" xmlns:xlink="http://www.w3.org/1999/xlink" xmlns:svgjs="http://svgjs.dev/svgjs" width="1000" height="355" viewBox="0 0 1000 355"><g transform="matrix(1,0,0,1,0.4250069790304565,0.01718418985328185)"><svg viewBox="0 0 400 142" data-background-color="#dedede" preserveAspectRatio="xMidYMid meet" height="355" width="1000" xmlns="http://www.w3.org/2000/svg" xmlns:xlink="http://www.w3.org/1999/xlink"><g id="tight-bounds" transform="matrix(1,0,0,1,4.6500027916122235,1.3548580232071288)"><svg viewBox="0 0 395.52 96.75462072896792" height="96.75462072896792" width="395.52"><g><svg viewBox="0 0 498.41821778100666 121.92623792933212" height="96.75462072896792" width="395.52"><g><rect width="3.621311153227873" height="121.92623792933212" x="89.79703449891004" y="0" fill="#374151" opacity="1" stroke-width="0" stroke="transparent" fill-opacity="1" class="rect-o-0" data-fill-palette-color="primary" rx="1%" id="o-0" data-palette-color="#374151"></rect></g><g transform="matrix(1,0,0,1,102.8982177810067,0.3032990993266935)"><svg viewBox="0 0 395.52 121.31963973067873" height="121.31963973067873" width="395.52"><g><svg viewBox="0 0 395.52 121.31963973067873" height="121.31963973067873" width="395.52"><g><svg viewBox="0 0 395.52 87.0233484162896" height="87.0233484162896" width="395.52"><g transform="matrix(1,0,0,1,0,0)"><svg width="395.52" viewBox="1.9999980926513672 -35 353.6000061035156 74.3499984741211" height="87.0233484162896" data-palette-color="#374151"><svg></svg><svg></svg><g class="undefined-text-0" data-fill-palette-color="primary" id="text-0"><path xmlns="http://www.w3.org/2000/svg" d="M17.65-34.3v0c-3.767 0-6.75 1.567-8.95 4.7-2.2 3.133-3.3 7.667-3.3 13.6v0c0 7.2 1.65 11.85 4.95 13.95v0c1 0.633 1.927 1.04 2.78 1.22 0.847 0.187 1.787 0.28 2.82 0.28v0c3.3 0 6.75-0.4 10.35-1.2v0l0.15 0.7c-0.567 0.2-2.073 0.457-4.52 0.77-2.453 0.32-4.447 0.48-5.98 0.48-1.533 0-2.867-0.11-4-0.33-1.133-0.213-2.333-0.67-3.6-1.37-1.267-0.7-2.34-1.627-3.22-2.78-0.887-1.147-1.63-2.72-2.23-4.72-0.6-2-0.9-4.333-0.9-7v0c0-5.9 1.35-10.5 4.05-13.8v0c2.833-3.467 6.7-5.2 11.6-5.2v0c1.5 0 3.127 0.14 4.88 0.42 1.747 0.287 2.987 0.563 3.72 0.83v0l0.6 7.2-0.95 0.35-0.65-5.35c-2.7-1.833-5.233-2.75-7.6-2.75zM38.4 0l-10.05 0.05 0.05-0.7 2.6-0.35c0.233-0.033 0.433-0.25 0.6-0.65v0l10.8-33.35h3.3l11.5 34.05 3.45 0.2c0 0.033-0.017 0.283-0.05 0.75v0l-10 0.05c0-0.3 0.017-0.533 0.05-0.7v0l2.6-0.35c0.267-0.033 0.4-0.233 0.4-0.6v0l-2.75-8.15h-15.6l-2.65 8.7 5.8 0.3c0 0.033-0.017 0.283-0.05 0.75zM50.55-10.75l-7.8-23.3-7.15 23.3zM65-33.95l-2.65-0.3 0.05-0.75h6.85l19.45 33.6-0.25-31.85c-0.133-0.333-0.317-0.517-0.55-0.55v0l-4.6-0.4c-0.033-0.2-0.05-0.45-0.05-0.75v0l9.5-0.05c0 0.033 0.017 0.283 0.05 0.75v0l-3.2 0.35v33.9h-3.65l-19.45-33.6 0.25 32.55 5.7 0.3c0 0.033-0.017 0.283-0.05 0.75v0l-10.05 0.05 0.05-0.7 2.6-0.35c0.333-0.033 0.533-0.25 0.6-0.65v0-31.65c-0.067-0.4-0.267-0.617-0.6-0.65zM112.15-34.3v0c-3.767 0-6.75 1.567-8.95 4.7-2.2 3.133-3.3 7.667-3.3 13.6v0c0 7.2 1.65 11.85 4.95 13.95v0c1 0.633 1.927 1.04 2.78 1.22 0.847 0.187 1.787 0.28 2.82 0.28v0c3.3 0 6.75-0.4 10.35-1.2v0l0.15 0.7c-0.567 0.2-2.073 0.457-4.52 0.77-2.453 0.32-4.447 0.48-5.98 0.48-1.533 0-2.867-0.11-4-0.33-1.133-0.213-2.333-0.67-3.6-1.37-1.267-0.7-2.34-1.627-3.22-2.78-0.887-1.147-1.63-2.72-2.23-4.72-0.6-2-0.9-4.333-0.9-7v0c0-5.9 1.35-10.5 4.05-13.8v0c2.833-3.467 6.7-5.2 11.6-5.2v0c1.5 0 3.127 0.14 4.88 0.42 1.747 0.287 2.987 0.563 3.72 0.83v0l0.6 7.2-0.95 0.35-0.65-5.35c-2.7-1.833-5.233-2.75-7.6-2.75zM127.55-33.95l-2.65-0.3 0.05-0.75h21.4l-0.05 0.15 0.65 7.05-1 0.4-0.8-6.6h-13.6v16.15h11.95c0.167 0.033 0.317-0.01 0.45-0.13 0.133-0.113 0.2-0.27 0.2-0.47v0l0.2-3.45 0.8-0.1v8.55c-0.033 0-0.283 0.017-0.75 0.05v0l-0.2-3.45h-12.65v15.85h14.95l0.95-8 0.95 0.25-0.75 8.75h-12.7l-10.05 0.05 0.05-0.7 2.6-0.35c0.333-0.033 0.533-0.25 0.6-0.65v0-31.65c-0.067-0.4-0.267-0.617-0.6-0.65zM154.15-33.95l-2.65-0.3 0.05-0.75h12.15c3.433 0 6.083 0.75 7.95 2.25 1.867 1.5 2.8 3.733 2.8 6.7v0c0 1.933-0.74 3.95-2.22 6.05-1.487 2.1-2.88 3.45-4.18 4.05v0l9.25 15.05 2.45 0.15c0 0.033-0.017 0.283-0.05 0.75v0l-5.45 0.05-9.5-15.4h-6.65v14.4l3.5 0.2c0 0.033-0.017 0.283-0.05 0.75v0l-10.05 0.05 0.05-0.7 2.6-0.35c0.233-0.033 0.417-0.183 0.55-0.45v0-32c-0.1-0.3-0.283-0.467-0.55-0.5zM163.45-34.25v0h-5.35v18.15h8.55c1.733-1.967 2.9-3.71 3.5-5.23 0.6-1.513 0.9-2.987 0.9-4.42v0c0-2.8-0.65-4.917-1.95-6.35-1.3-1.433-3.183-2.15-5.65-2.15z" fill="#374151" fill-rule="nonzero" stroke="none" stroke-width="1" stroke-linecap="butt" stroke-linejoin="miter" stroke-miterlimit="10" stroke-dasharray="" stroke-dashoffset="0" font-family="none" font-weight="none" font-size="none" text-anchor="none" style="mix-blend-mode: normal" data-fill-palette-color="primary" opacity="1"></path><path xmlns="http://www.w3.org/2000/svg" d="M17.65 4.6v0c-3.767 0-6.75 1.567-8.95 4.7-2.2 3.133-3.3 7.667-3.3 13.6v0c0 7.2 1.65 11.85 4.95 13.95v0c1 0.633 1.927 1.04 2.78 1.22 0.847 0.187 1.787 0.28 2.82 0.28v0c3.3 0 6.75-0.4 10.35-1.2v0l0.15 0.7c-0.567 0.2-2.073 0.457-4.52 0.77-2.453 0.32-4.447 0.48-5.98 0.48-1.533 0-2.867-0.11-4-0.33-1.133-0.213-2.333-0.67-3.6-1.37-1.267-0.7-2.34-1.627-3.22-2.78-0.887-1.147-1.63-2.72-2.23-4.72-0.6-2-0.9-4.333-0.9-7v0c0-5.9 1.35-10.5 4.05-13.8v0c2.833-3.467 6.7-5.2 11.6-5.2v0c1.5 0 3.127 0.14 4.88 0.42 1.747 0.287 2.987 0.563 3.72 0.83v0l0.6 7.2-0.95 0.35-0.65-5.35c-2.7-1.833-5.233-2.75-7.6-2.75zM30.6 3.95l10.05-0.05c0 0.033 0.017 0.283 0.05 0.75v0l-3.45 0.3v32.95h13.8l1-8 0.95 0.25-0.75 8.75h-11.6l-10.05 0.05 0.05-0.7 2.6-0.35c0.333-0.033 0.533-0.25 0.6-0.65v0-31.65c-0.067-0.4-0.267-0.617-0.6-0.65v0l-2.6-0.25zM64.5 38.9l-10.05 0.05 0.05-0.7 2.6-0.35c0.233-0.033 0.433-0.25 0.6-0.65v0l10.8-33.35h3.3l11.5 34.05 3.45 0.2c0 0.033-0.017 0.283-0.05 0.75v0l-10 0.05c0-0.3 0.017-0.533 0.05-0.7v0l2.6-0.35c0.267-0.033 0.4-0.233 0.4-0.6v0l-2.75-8.15h-15.6l-2.65 8.7 5.8 0.3c0 0.033-0.017 0.283-0.05 0.75zM76.65 28.15l-7.8-23.3-7.15 23.3zM98.35 37.95v0c2.467 0 4.633-0.727 6.5-2.18 1.867-1.447 2.8-3.653 2.8-6.62v0c0-1.333-0.323-2.477-0.97-3.43-0.653-0.947-1.513-1.68-2.58-2.2-1.067-0.513-2.233-0.963-3.5-1.35-1.267-0.38-2.533-0.787-3.8-1.22-1.267-0.433-2.433-0.95-3.5-1.55-1.067-0.6-1.923-1.45-2.57-2.55-0.653-1.1-0.98-2.417-0.98-3.95v0c0-2.667 0.917-4.85 2.75-6.55 1.833-1.7 4.283-2.55 7.35-2.55 3.067 0 6 0.35 8.8 1.05v0l0.55 6.25-0.95 0.4-0.5-3.95c-2.467-1.833-4.783-2.75-6.95-2.75-2.167 0-3.983 0.657-5.45 1.97-1.467 1.32-2.2 3.297-2.2 5.93v0c0 1.533 0.617 2.75 1.85 3.65 1.233 0.9 2.727 1.6 4.48 2.1 1.747 0.5 3.497 1.067 5.25 1.7 1.747 0.633 3.237 1.7 4.47 3.2 1.233 1.5 1.85 3.45 1.85 5.85v0c0 3.233-1.15 5.667-3.45 7.3-2.3 1.633-5.333 2.45-9.1 2.45-3.767 0-7.033-1.017-9.8-3.05v0l0.05-5.3 0.95-0.25 0.1 2.85c0.9 1.267 2.133 2.373 3.7 3.32 1.567 0.953 3.183 1.43 4.85 1.43zM124.7 37.95v0c2.467 0 4.633-0.727 6.5-2.18 1.867-1.447 2.8-3.653 2.8-6.62v0c0-1.333-0.323-2.477-0.97-3.43-0.653-0.947-1.513-1.68-2.58-2.2-1.067-0.513-2.233-0.963-3.5-1.35-1.267-0.38-2.533-0.787-3.8-1.22-1.267-0.433-2.433-0.95-3.5-1.55-1.067-0.6-1.923-1.45-2.57-2.55-0.653-1.1-0.98-2.417-0.98-3.95v0c0-2.667 0.917-4.85 2.75-6.55 1.833-1.7 4.283-2.55 7.35-2.55 3.067 0 6 0.35 8.8 1.05v0l0.55 6.25-0.95 0.4-0.5-3.95c-2.467-1.833-4.783-2.75-6.95-2.75-2.167 0-3.983 0.657-5.45 1.97-1.467 1.32-2.2 3.297-2.2 5.93v0c0 1.533 0.617 2.75 1.85 3.65 1.233 0.9 2.727 1.6 4.48 2.1 1.747 0.5 3.497 1.067 5.25 1.7 1.747 0.633 3.237 1.7 4.47 3.2 1.233 1.5 1.85 3.45 1.85 5.85v0c0 3.233-1.15 5.667-3.45 7.3-2.3 1.633-5.333 2.45-9.1 2.45-3.767 0-7.033-1.017-9.8-3.05v0l0.05-5.3 0.95-0.25 0.1 2.85c0.9 1.267 2.133 2.373 3.7 3.32 1.567 0.953 3.183 1.43 4.85 1.43zM151.2 38.9l-10.05 0.05 0.05-0.7 2.6-0.35c0.333-0.033 0.533-0.25 0.6-0.65v0h0.05v-31.6h-0.05c-0.067-0.433-0.267-0.667-0.6-0.7v0l-2.6-0.25-0.05-0.75 10.05-0.05c0 0.033 0.017 0.283 0.05 0.75v0l-3.4 0.3v33l3.4 0.2c0 0.033-0.017 0.283-0.05 0.75zM157.75 4.95l-2.65-0.3 0.05-0.75h21.4l-0.05 0.15 0.65 7.05-1 0.4-0.8-6.6h-13.6v16.15h11.95c0.167 0.033 0.317-0.01 0.45-0.13 0.133-0.113 0.2-0.27 0.2-0.47v0l0.2-3.45 0.8-0.1v8.55c-0.033 0-0.283 0.017-0.75 0.05v0l-0.2-3.45h-12.65v15.9l3.45 0.2c0 0.033-0.017 0.283-0.05 0.75v0l-10.05 0.05 0.05-0.7 2.6-0.35c0.333-0.033 0.533-0.25 0.6-0.65v0-31.65c-0.067-0.4-0.267-0.617-0.6-0.65zM190.7 38.9l-10.05 0.05 0.05-0.7 2.6-0.35c0.333-0.033 0.533-0.25 0.6-0.65v0h0.05v-31.6h-0.05c-0.067-0.433-0.267-0.667-0.6-0.7v0l-2.6-0.25-0.05-0.75 10.05-0.05c0 0.033 0.017 0.283 0.05 0.75v0l-3.4 0.3v33l3.4 0.2c0 0.033-0.017 0.283-0.05 0.75zM210.35 4.6v0c-3.767 0-6.75 1.567-8.95 4.7-2.2 3.133-3.3 7.667-3.3 13.6v0c0 7.2 1.65 11.85 4.95 13.95v0c1 0.633 1.923 1.04 2.77 1.22 0.853 0.187 1.797 0.28 2.83 0.28v0c3.3 0 6.75-0.4 10.35-1.2v0l0.15 0.7c-0.567 0.2-2.073 0.457-4.52 0.77-2.453 0.32-4.447 0.48-5.98 0.48-1.533 0-2.867-0.11-4-0.33-1.133-0.213-2.333-0.67-3.6-1.37-1.267-0.7-2.343-1.627-3.23-2.78-0.88-1.147-1.62-2.72-2.22-4.72-0.6-2-0.9-4.333-0.9-7v0c0-5.9 1.35-10.5 4.05-13.8v0c2.833-3.467 6.7-5.2 11.6-5.2v0c1.5 0 3.123 0.14 4.87 0.42 1.753 0.287 2.997 0.563 3.73 0.83v0l0.6 7.2-0.95 0.35-0.65-5.35c-2.7-1.833-5.233-2.75-7.6-2.75zM231.1 38.9l-10.05 0.05 0.05-0.7 2.6-0.35c0.233-0.033 0.433-0.25 0.6-0.65v0l10.8-33.35h3.3l11.5 34.05 3.45 0.2c0 0.033-0.017 0.283-0.05 0.75v0l-10 0.05c0-0.3 0.017-0.533 0.05-0.7v0l2.6-0.35c0.267-0.033 0.4-0.233 0.4-0.6v0l-2.75-8.15h-15.6l-2.65 8.7 5.8 0.3c0 0.033-0.017 0.283-0.05 0.75zM243.25 28.15l-7.8-23.3-7.15 23.3zM261.65 37.25v-32.35h-8.6l-0.8 6.6-0.95-0.4 0.5-6.2h-0.05l0.1-0.4 0.05-0.6 0.1 0.05v-0.05h22.7l0.65 7.2-1 0.4-0.8-6.6h-8.75v33.05l3.65 0.2c0 0.033-0.017 0.283-0.05 0.75v0l-10 0.05c0-0.3 0.017-0.533 0.05-0.7v0l2.6-0.35c0.333-0.033 0.533-0.25 0.6-0.65zM288.4 38.9l-10.05 0.05 0.05-0.7 2.6-0.35c0.333-0.033 0.533-0.25 0.6-0.65v0h0.05v-31.6h-0.05c-0.067-0.433-0.267-0.667-0.6-0.7v0l-2.6-0.25-0.05-0.75 10.05-0.05c0 0.033 0.017 0.283 0.05 0.75v0l-3.4 0.3v33l3.4 0.2c0 0.033-0.017 0.283-0.05 0.75zM292.4 21.5v0c0-5.5 1.41-9.883 4.23-13.15 2.813-3.267 6.32-4.9 10.52-4.9v0c9.833 0 14.75 6.017 14.75 18.05v0c0 5.533-1.4 9.89-4.2 13.07-2.8 3.187-6.317 4.78-10.55 4.78v0c-9.833 0-14.75-5.95-14.75-17.85zM295.8 21.4v0c0 11.3 3.783 16.95 11.35 16.95v0c3.267 0 5.973-1.5 8.12-4.5 2.153-3 3.23-7.15 3.23-12.45v0c0-11.3-3.783-16.95-11.35-16.95v0c-3.233 0-5.933 1.517-8.1 4.55-2.167 3.033-3.25 7.167-3.25 12.4zM327.8 4.95l-2.65-0.3 0.05-0.75h6.85l19.45 33.6-0.25-31.85c-0.133-0.333-0.317-0.517-0.55-0.55v0l-4.6-0.4c-0.033-0.2-0.05-0.45-0.05-0.75v0l9.5-0.05c0 0.033 0.017 0.283 0.05 0.75v0l-3.2 0.35v33.9h-3.65l-19.45-33.6 0.25 32.55 5.7 0.3c0 0.033-0.017 0.283-0.05 0.75v0l-10.05 0.05 0.05-0.7 2.6-0.35c0.333-0.033 0.533-0.25 0.6-0.65v0-31.65c-0.067-0.4-0.267-0.617-0.6-0.65z" fill="#374151" fill-rule="nonzero" stroke="none" stroke-width="1" stroke-linecap="butt" stroke-linejoin="miter" stroke-miterlimit="10" stroke-dasharray="" stroke-dashoffset="0" font-family="none" font-weight="none" font-size="none" text-anchor="none" style="mix-blend-mode: normal" data-fill-palette-color="primary" opacity="1"></path></g></svg></g></svg></g><g transform="matrix(1,0,0,1,0,96.50322054515837)"><svg viewBox="0 0 219.359419586296 24.81641918552036" height="24.81641918552036" width="219.359419586296"><g transform="matrix(1,0,0,1,0,0)"><svg width="219.359419586296" viewBox="4.519999980926514 -40.5 362.52001953125 41.0099983215332" height="24.81641918552036" data-palette-color="#374151"><path d="M4.52 0L4.52-40.48 11.74-40.48 11.74-26.61Q14.01-27.86 16.81-28.59 19.6-29.32 22.68-29.32L22.68-29.32Q26.25-29.32 29.09-28.27 31.93-27.22 33.91-25.26 35.89-23.29 36.95-20.48 38.01-17.68 38.01-14.16L38.01-14.16 38.01 0 30.81 0 30.81-13.87Q30.81-15.92 30.15-17.61 29.49-19.31 28.22-20.53 26.95-21.75 25.13-22.42 23.32-23.1 21.02-23.1L21.02-23.1Q18.26-23.1 15.89-22.22 13.53-21.34 11.74-20L11.74-20 11.74 0 4.52 0ZM44.72-14.5L44.72-14.5Q44.72-17.43 45.92-20.1 47.12-22.78 49.36-24.83 51.61-26.88 54.87-28.1 58.13-29.32 62.28-29.32L62.28-29.32Q66.4-29.32 69.71-28.09 73.02-26.86 75.33-24.71 77.63-22.56 78.87-19.65 80.1-16.75 80.1-13.43L80.1-13.43Q80.1-13.01 80.09-12.54 80.08-12.06 80.03-11.67L80.03-11.67 52.78-11.67Q53.24-10.38 54.28-9.3 55.32-8.23 56.88-7.45 58.44-6.67 60.5-6.24 62.55-5.81 65.04-5.81L65.04-5.81Q67.53-5.81 69.99-6.34 72.46-6.86 74.7-7.67L74.7-7.67 77.15-2.15Q75.73-1.49 74.28-0.99 72.82-0.49 71.25-0.16 69.68 0.17 67.95 0.34 66.23 0.51 64.33 0.51L64.33 0.51Q59.47 0.51 55.81-0.66 52.15-1.83 49.68-3.86 47.21-5.88 45.97-8.62 44.72-11.35 44.72-14.5ZM52.78-17.31L72.43-17.31Q72.04-18.51 71.23-19.54 70.41-20.58 69.19-21.35 67.97-22.12 66.35-22.56 64.74-23 62.81-23L62.81-23Q60.76-23 59.08-22.53 57.39-22.07 56.13-21.29 54.86-20.51 54.01-19.48 53.17-18.46 52.78-17.31L52.78-17.31ZM86.49-9.08L86.49-9.08Q86.49-11.16 87.4-12.87 88.3-14.58 90.11-15.81 91.91-17.04 94.61-17.71 97.31-18.38 100.9-18.38L100.9-18.38Q103.56-18.38 106.5-17.99 109.44-17.6 112.57-16.8L112.57-16.8Q112.45-18.16 111.74-19.32 111.03-20.48 109.77-21.33 108.52-22.17 106.75-22.63 104.98-23.1 102.73-23.1L102.73-23.1Q101.51-23.1 100.04-22.95 98.58-22.8 97.02-22.51 95.45-22.22 93.93-21.78 92.4-21.34 91.08-20.73L91.08-20.73 88.89-26.66Q90.52-27.25 92.39-27.73 94.26-28.22 96.21-28.58 98.16-28.93 100.12-29.13 102.07-29.32 103.9-29.32L103.9-29.32Q111.98-29.32 115.91-25.2 119.84-21.07 119.84-12.55L119.84-12.55 119.84 0 112.62 0 112.62-2.71Q111.49-2.05 110.16-1.46 108.83-0.88 107.27-0.44 105.71 0 103.91 0.26 102.12 0.51 100.12 0.51L100.12 0.51Q96.75 0.51 94.2-0.22 91.65-0.95 89.94-2.25 88.23-3.54 87.36-5.29 86.49-7.03 86.49-9.08ZM94.11-9.33L94.11-9.33Q94.11-8.62 94.48-7.97 94.84-7.32 95.65-6.82 96.45-6.32 97.71-6.02 98.97-5.71 100.75-5.71L100.75-5.71Q102.66-5.71 104.44-6.05 106.22-6.4 107.76-6.96 109.3-7.52 110.54-8.25 111.79-8.98 112.62-9.77L112.62-9.77 112.62-11.04Q110.96-11.5 109.33-11.82 107.71-12.13 106.23-12.32 104.76-12.5 103.45-12.57 102.14-12.65 101.17-12.65L101.17-12.65Q99.14-12.65 97.8-12.38 96.45-12.11 95.62-11.66 94.79-11.21 94.45-10.6 94.11-9.99 94.11-9.33ZM129.58 0L129.58-40.5 136.81-40.5 136.81 0 129.58 0ZM150.41 0L150.41-23.39 143.45-23.39 143.45-28.81 150.41-28.81 150.41-37.77 157.63-37.77 157.63-28.81 164.59-28.81 164.59-23.39 157.63-23.39 157.63 0 150.41 0ZM171.01 0L171.01-40.48 178.23-40.48 178.23-26.61Q180.51-27.86 183.3-28.59 186.1-29.32 189.17-29.32L189.17-29.32Q192.74-29.32 195.58-28.27 198.43-27.22 200.4-25.26 202.38-23.29 203.44-20.48 204.5-17.68 204.5-14.16L204.5-14.16 204.5 0 197.3 0 197.3-13.87Q197.3-15.92 196.64-17.61 195.98-19.31 194.71-20.53 193.44-21.75 191.63-22.42 189.81-23.1 187.51-23.1L187.51-23.1Q184.75-23.1 182.38-22.22 180.02-21.34 178.23-20L178.23-20 178.23 0 171.01 0ZM227.45-14.33L227.45-14.33Q227.45-17.5 228.61-20.25 229.77-23 232-25.01 234.24-27.03 237.47-28.17 240.71-29.32 244.86-29.32L244.86-29.32Q246.66-29.32 248.49-29.1 250.32-28.88 252.02-28.48 253.72-28.08 255.21-27.53 256.7-26.98 257.8-26.32L257.8-26.32 254.45-20.87Q252.08-21.97 249.97-22.49 247.86-23 245.69-23L245.69-23Q243.2-23 241.22-22.35 239.24-21.7 237.86-20.54 236.48-19.38 235.76-17.81 235.04-16.24 235.04-14.38L235.04-14.38Q235.04-12.52 235.81-10.95 236.58-9.38 237.98-8.24 239.39-7.1 241.38-6.46 243.37-5.81 245.81-5.81L245.81-5.81Q248.49-5.81 250.87-6.57 253.25-7.32 255.3-8.59L255.3-8.59 258.65-3.15Q257.36-2.37 255.84-1.7 254.33-1.03 252.61-0.54 250.89-0.05 248.99 0.23 247.1 0.51 245.08 0.51L245.08 0.51Q240.95 0.51 237.68-0.61 234.41-1.73 232.14-3.72 229.87-5.71 228.66-8.42 227.45-11.13 227.45-14.33ZM265.07-9.08L265.07-9.08Q265.07-11.16 265.97-12.87 266.87-14.58 268.68-15.81 270.49-17.04 273.19-17.71 275.88-18.38 279.47-18.38L279.47-18.38Q282.13-18.38 285.08-17.99 288.02-17.6 291.14-16.8L291.14-16.8Q291.02-18.16 290.31-19.32 289.6-20.48 288.35-21.33 287.09-22.17 285.32-22.63 283.55-23.1 281.3-23.1L281.3-23.1Q280.08-23.1 278.62-22.95 277.15-22.8 275.59-22.51 274.03-22.22 272.5-21.78 270.98-21.34 269.66-20.73L269.66-20.73 267.46-26.66Q269.1-27.25 270.96-27.73 272.83-28.22 274.78-28.58 276.74-28.93 278.69-29.13 280.64-29.32 282.48-29.32L282.48-29.32Q290.56-29.32 294.49-25.2 298.42-21.07 298.42-12.55L298.42-12.55 298.42 0 291.19 0 291.19-2.71Q290.07-2.05 288.74-1.46 287.41-0.88 285.84-0.44 284.28 0 282.49 0.26 280.69 0.51 278.69 0.51L278.69 0.51Q275.32 0.51 272.77-0.22 270.22-0.95 268.51-2.25 266.8-3.54 265.93-5.29 265.07-7.03 265.07-9.08ZM272.69-9.33L272.69-9.33Q272.69-8.62 273.05-7.97 273.42-7.32 274.22-6.82 275.03-6.32 276.29-6.02 277.54-5.71 279.33-5.71L279.33-5.71Q281.23-5.71 283.01-6.05 284.79-6.4 286.33-6.96 287.87-7.52 289.12-8.25 290.36-8.98 291.19-9.77L291.19-9.77 291.19-11.04Q289.53-11.5 287.91-11.82 286.28-12.13 284.81-12.32 283.33-12.5 282.02-12.57 280.72-12.65 279.74-12.65L279.74-12.65Q277.71-12.65 276.37-12.38 275.03-12.11 274.2-11.66 273.37-11.21 273.03-10.6 272.69-9.99 272.69-9.33ZM307.96 0L307.96-28.81 315.19-28.81 315.19-24.66Q317.58-26.44 320.24-27.73 322.9-29.03 325.54-29.71L325.54-29.71 327.66-23.1Q323.49-22.68 320.33-21.23 317.17-19.78 315.19-17.14L315.19-17.14 315.19 0 307.96 0ZM331.66-14.5L331.66-14.5Q331.66-17.43 332.86-20.1 334.06-22.78 336.3-24.83 338.55-26.88 341.81-28.1 345.07-29.32 349.22-29.32L349.22-29.32Q353.34-29.32 356.65-28.09 359.96-26.86 362.27-24.71 364.57-22.56 365.81-19.65 367.04-16.75 367.04-13.43L367.04-13.43Q367.04-13.01 367.03-12.54 367.02-12.06 366.97-11.67L366.97-11.67 339.72-11.67Q340.18-10.38 341.22-9.3 342.26-8.23 343.82-7.45 345.39-6.67 347.44-6.24 349.49-5.81 351.98-5.81L351.98-5.81Q354.47-5.81 356.93-6.34 359.4-6.86 361.64-7.67L361.64-7.67 364.09-2.15Q362.67-1.49 361.22-0.99 359.77-0.49 358.19-0.16 356.62 0.17 354.89 0.34 353.17 0.51 351.27 0.51L351.27 0.51Q346.41 0.51 342.75-0.66 339.09-1.83 336.62-3.86 334.15-5.88 332.91-8.62 331.66-11.35 331.66-14.5ZM339.72-17.31L359.37-17.31Q358.98-18.51 358.17-19.54 357.35-20.58 356.13-21.35 354.91-22.12 353.3-22.56 351.68-23 349.76-23L349.76-23Q347.7-23 346.02-22.53 344.34-22.07 343.07-21.29 341.8-20.51 340.95-19.48 340.11-18.46 339.72-17.31L339.72-17.31Z" opacity="1" transform="matrix(1,0,0,1,0,0)" fill="#374151" class="undefined-text-1" data-fill-palette-color="secondary" id="text-1"></path></svg></g></svg></g></svg></g></svg></g><g transform="matrix(1,0,0,1,0,0.3032990993266935)"><svg viewBox="0 0 80.31716237004126 121.31963973067873" height="121.31963973067873" width="80.31716237004126"><g><svg xmlns="http://www.w3.org/2000/svg" xmlns:xlink="http://www.w3.org/1999/xlink" version="1.1" x="0" y="0" viewBox="24.761856079101562 5 59.5826416015625 90" enable-background="new 0 0 100 100" xml:space="preserve" height="121.31963973067873" width="80.31716237004126" class="icon-icon-0" data-fill-palette-color="accent" id="icon-0"><g fill="#374151" data-fill-palette-color="accent"><path d="M73.76 35.603C86.875 48 91.5 66.25 65.633 82.379c3.64-4.928 5.654-9.794 6.096-14.669 0.951-10.516-5.606-19.072-12.835-26.752C48.298 29.7 47.51 18.84 56.413 6.782 54.578 22.641 64.6 26.944 73.76 35.603zM45.288 93.716c6.184-13.053 7.276-20.302-8.197-34.939-4.204-3.977-7.451-8.029-9.71-12.086-2.881 6.435-5.164 20.081 3.244 27.935C36.312 79.938 44.125 83.125 45.288 93.716zM56.709 43.014C48.183 33.954 41.999 21.253 54 5 21.497 17.692 19.625 38.125 39.151 56.597 55.603 72.158 54.75 80.75 48 95 79.875 71.5 68.709 55.764 56.709 43.014z" fill="#374151" data-fill-palette-color="accent"></path></g><g display="none" fill="#374151" data-fill-palette-color="accent"><path display="inline" d="M54 5C16.75 17.5 14.875 56.5 26.75 70.762c10.558 12.68 15.407 7.949 19.675 20.824" fill="#374151" data-fill-palette-color="accent"></path><line display="inline" x1="56.988" y1="5.261" x2="45.528" y2="136.262" fill="#374151" data-fill-palette-color="accent"></line><line display="inline" x1="54.131" y1="3.502" x2="42.67" y2="134.502" fill="#374151" data-fill-palette-color="accent"></line><path display="inline" d="M42.875 76" fill="#374151" data-fill-palette-color="accent"></path></g></svg></g></svg></g></svg></g><defs></defs></svg><rect width="395.52" height="96.75462072896792" fill="none" stroke="none" visibility="hidden"></rect></g></svg></g></svg>