<?xml version="1.0" encoding="iso-8859-1"?>
<!-- Generator: Adobe Illustrator 19.0.0, SVG Export Plug-In . SVG Version: 6.00 Build 0)  -->
<svg version="1.1" id="Layer_1" xmlns="http://www.w3.org/2000/svg" xmlns:xlink="http://www.w3.org/1999/xlink" x="0px" y="0px"
	 viewBox="0 0 504.32 504.32" style="enable-background:new 0 0 504.32 504.32;" xml:space="preserve">
<g transform="translate(1 1)">
	<path style="fill:#FFD0A1;" d="M395.42,156.867v68.267c0,9.387-7.68,17.067-17.067,17.067c0,0-5.973,26.453-13.653,52.907
		l-5.973-1.707c0,0-64.853,0-107.52-17.067C208.54,293.4,143.687,293.4,143.687,293.4l-6.827,1.707
		c-8.533-27.307-14.507-52.907-14.507-52.907c-9.387,0-17.067-7.68-17.067-17.067v-68.267H395.42z"/>
	<path style="fill:#ECF4F7;" d="M395.42,71.533v85.333H105.287V71.533c0-39.253,28.16-68.267,68.267-68.267h162.133
		C374.94,3.267,395.42,33.133,395.42,71.533 M284.487,88.6c0-18.773-15.36-34.133-34.133-34.133S216.22,69.827,216.22,88.6
		s15.36,34.133,34.133,34.133S284.487,107.373,284.487,88.6z M357.873,293.4l5.973,1.707c-5.973,18.773-12.8,38.4-19.627,49.493
		c-10.24,16.213-34.133,51.2-93.867,51.2s-83.627-34.987-93.867-51.2c-6.827-10.24-14.507-29.867-19.627-49.493l6.827-1.707
		c0,0,64.853,0,107.52-17.067C293.02,293.4,357.873,293.4,357.873,293.4z"/>
	<path style="fill:#AAB1BA;" d="M130.887,447c14.507,0,25.6,11.093,25.6,25.6s-11.093,25.6-25.6,25.6s-25.6-11.093-25.6-25.6
		S116.38,447,130.887,447"/>
	<g>
		<path style="fill:#80D6FA;" d="M250.353,498.2H130.887c14.507,0,25.6-11.093,25.6-25.6s-11.093-25.6-25.6-25.6v-17.067
			c7.68,0,16.213,0,25.6,0l34.133-17.067l59.733,51.2V498.2z"/>
		<path style="fill:#80D6FA;" d="M130.887,447c-14.507,0-25.6,11.093-25.6,25.6s11.093,25.6,25.6,25.6h-128l8.533-25.6
			c7.68-22.187,23.04-40.107,119.467-42.667V447z"/>
		<path style="fill:#80D6FA;" d="M250.353,54.467c18.773,0,34.133,15.36,34.133,34.133s-15.36,34.133-34.133,34.133
			S216.22,107.373,216.22,88.6S231.58,54.467,250.353,54.467"/>
		<path style="fill:#80D6FA;" d="M489.287,472.6l8.533,25.6H250.353v-34.133l59.733-51.2l34.133,17.067
			C463.687,429.933,481.607,448.707,489.287,472.6"/>
	</g>
</g>
<path style="fill:#51565F;" d="M498.82,503.467c-1.707,0-3.413-0.853-4.267-2.56l-8.533-25.6
	c-7.68-21.333-23.04-40.107-140.8-40.107l0,0c-2.56-0.853-10.24-4.267-33.28-16.213l-56.32,47.787V499.2
	c0,2.56-1.707,4.267-4.267,4.267s-4.267-1.707-4.267-4.267v-32.427l-56.32-47.787L159.193,435.2c-0.853,0-0.853,0-1.707,0.853
	c-7.68,0-14.507,0-21.333,0v8.533c14.507,1.707,25.6,14.507,25.6,29.867c0,16.213-13.653,29.867-29.867,29.867
	s-29.867-13.653-29.867-29.867c0-15.36,11.093-27.307,25.6-29.867v-8.533c-91.307,2.56-104.96,19.627-110.933,39.253l-8.533,25.6
	c-0.853,2.56-3.413,3.413-5.12,2.56c-2.56-0.853-3.413-3.413-2.56-5.12l8.533-25.6c7.68-23.04,23.04-42.667,122.027-45.227
	c0.853-0.853,2.56-0.853,3.413,0c6.827,0,14.507,0,23.04,0l33.28-16.213c1.707-0.853,3.413-0.853,4.267,0.853l57.173,48.64
	l57.173-48.64c1.707-0.853,3.413-1.707,4.267-0.853c0,0,28.16,13.653,33.28,16.213c122.88,0,139.947,20.48,148.48,45.227l8.533,25.6
	c0.853,2.56-0.853,4.267-2.56,5.12C499.673,503.467,499.673,503.467,498.82,503.467z M131.887,452.267
	c-11.947,0-21.333,9.387-21.333,21.333c0,11.947,9.387,21.333,21.333,21.333s21.333-9.387,21.333-21.333
	C153.22,461.653,143.833,452.267,131.887,452.267z M251.353,401.067c-62.293,0-87.04-37.547-97.28-52.907
	c-15.36-23.04-30.72-86.187-34.133-100.693c-10.24-1.707-17.92-10.24-17.92-21.333V192c0-2.56,1.707-4.267,4.267-4.267
	c2.56,0,4.267,1.707,4.267,4.267v34.133c0,6.827,5.973,12.8,12.8,12.8c1.707,0,3.413,1.707,4.267,3.413c0,0,5.12,23.893,12.8,49.493
	c0.853-0.853,1.707-1.707,3.413-1.707c0.853,0,64.853,0,105.813-17.067c0.853,0,2.56,0,3.413,0
	c41.813,16.213,104.96,17.067,105.813,17.067c1.707,0,2.56,0.853,3.413,1.707c7.68-25.6,12.8-48.64,12.8-49.493
	c0.853-1.707,2.56-3.413,4.267-3.413c6.827,0,12.8-5.973,12.8-12.8V192c0-2.56,1.707-4.267,4.267-4.267s4.267,1.707,4.267,4.267
	v34.133c0,10.24-7.68,19.627-17.92,21.333c-3.413,14.507-18.773,77.653-34.133,100.693
	C338.393,363.52,313.647,401.067,251.353,401.067z M142.98,298.667c5.12,17.92,11.947,34.987,18.773,44.373
	c11.093,16.213,33.28,49.493,90.453,49.493s79.36-33.28,90.453-49.493c6.827-9.387,12.8-27.307,18.773-44.373h-0.853
	c-2.56,0-64.853,0-107.52-17.067c-42.667,16.213-104.96,17.067-107.52,17.067C143.833,298.667,142.98,298.667,142.98,298.667z
	 M294.02,238.933c-2.56,0-4.267-1.707-4.267-4.267V230.4h-12.8c-2.56,0-4.267-1.707-4.267-4.267s1.707-4.267,4.267-4.267h34.133
	c2.56,0,4.267,1.707,4.267,4.267s-1.707,4.267-4.267,4.267h-12.8v4.267C298.287,237.227,296.58,238.933,294.02,238.933z
	 M208.687,238.933c-2.56,0-4.267-1.707-4.267-4.267V230.4h-12.8c-2.56,0-4.267-1.707-4.267-4.267s1.707-4.267,4.267-4.267h34.133
	c2.56,0,4.267,1.707,4.267,4.267s-1.707,4.267-4.267,4.267h-12.8v4.267C212.953,237.227,211.247,238.933,208.687,238.933z
	 M396.42,162.133H106.287c-2.56,0-4.267-1.707-4.267-4.267V72.533C102.02,30.72,132.74,0,174.553,0h162.133
	c39.253,0,64,28.16,64,72.533v85.333C400.687,160.427,398.98,162.133,396.42,162.133z M110.553,153.6h281.6V72.533
	c0-30.72-14.507-64-55.467-64H174.553c-36.693,0-64,27.307-64,64V153.6z M251.353,128c-21.333,0-38.4-17.067-38.4-38.4
	s17.067-38.4,38.4-38.4s38.4,17.067,38.4,38.4S272.687,128,251.353,128z M251.353,59.733c-16.213,0-29.867,13.653-29.867,29.867
	s13.653,29.867,29.867,29.867S281.22,105.813,281.22,89.6S267.567,59.733,251.353,59.733z M362.287,93.867H294.02
	c-2.56,0-4.267-1.707-4.267-4.267c0-2.56,1.707-4.267,4.267-4.267h68.267c2.56,0,4.267,1.707,4.267,4.267
	C366.553,92.16,364.847,93.867,362.287,93.867z M208.687,93.867H140.42c-2.56,0-4.267-1.707-4.267-4.267
	c0-2.56,1.707-4.267,4.267-4.267h68.267c2.56,0,4.267,1.707,4.267,4.267C212.953,92.16,211.247,93.867,208.687,93.867z"/>
<g>
</g>
<g>
</g>
<g>
</g>
<g>
</g>
<g>
</g>
<g>
</g>
<g>
</g>
<g>
</g>
<g>
</g>
<g>
</g>
<g>
</g>
<g>
</g>
<g>
</g>
<g>
</g>
<g>
</g>
</svg>
