<?xml version="1.0" standalone="no"?>
<!DOCTYPE svg PUBLIC "-//W3C//DTD SVG 20010904//EN"
 "http://www.w3.org/TR/2001/REC-SVG-20010904/DTD/svg10.dtd">
<svg version="1.0" xmlns="http://www.w3.org/2000/svg"
 width="2000.000000pt" height="1500.000000pt" viewBox="0 0 2000.000000 1500.000000"
 preserveAspectRatio="xMidYMid meet">

<g transform="translate(0.000000,1500.000000) scale(0.100000,-0.100000)"
fill="#000000" stroke="none">
<path d="M0 7500 l0 -7500 10000 0 10000 0 0 7500 0 7500 -10000 0 -10000 0 0
-7500z m3404 1808 c13 -19 16 -59 16 -234 l0 -211 -31 -39 c-30 -37 -334 -493
-616 -923 -111 -169 -133 -209 -133 -241 0 -74 78 -150 156 -150 77 0 88 11
235 232 76 114 147 212 158 218 32 17 68 12 98 -14 l28 -24 5 -764 5 -763 22
-31 c31 -43 85 -68 136 -61 53 7 87 33 115 87 22 44 22 48 22 469 0 381 2 426
17 443 22 25 56 23 102 -7 86 -58 176 -35 225 55 41 75 63 77 148 8 20 -16 41
-22 76 -22 64 0 111 28 139 82 12 24 27 50 33 58 19 22 58 17 97 -13 26 -20
50 -28 93 -31 55 -4 59 -2 98 32 57 52 62 86 62 417 l0 281 -33 33 c-64 64
-157 55 -207 -19 -48 -70 -84 -71 -126 -4 -33 52 -81 72 -152 65 -62 -7 -96
-26 -117 -67 -27 -53 -86 -52 -112 2 -19 38 -48 59 -91 65 -52 7 -94 -16 -118
-64 -17 -34 -20 -71 -24 -366 -5 -356 -4 -347 -62 -347 -18 0 -33 8 -44 24
-13 22 -15 65 -12 348 l3 323 34 69 c38 78 93 121 169 132 54 8 133 -8 171
-35 27 -20 27 -20 77 5 95 47 243 40 313 -15 24 -18 24 -18 74 13 45 28 58 31
126 30 91 0 141 -22 194 -84 55 -65 59 -90 55 -435 -3 -301 -4 -312 -27 -362
-26 -60 -91 -124 -148 -148 -47 -21 -135 -21 -189 -2 l-41 15 -26 -33 c-15
-18 -52 -46 -83 -61 -70 -34 -160 -38 -223 -9 l-41 18 -44 -41 c-64 -59 -173
-88 -240 -62 l-25 9 -3 -387 -3 -387 -27 -51 c-54 -102 -159 -162 -264 -151
-95 10 -188 77 -226 163 -10 22 -14 191 -18 728 l-5 699 -105 -159 c-89 -134
-113 -164 -154 -189 -45 -27 -57 -30 -135 -30 -99 0 -141 17 -203 82 -82 85
-101 197 -50 294 32 61 692 1059 728 1102 23 28 24 33 24 224 0 169 2 199 17
215 23 25 68 23 87 -4z m1170 0 c13 -18 16 -54 16 -186 l0 -163 59 -71 c73
-85 123 -179 150 -278 28 -99 27 -144 -1 -164 -51 -36 -88 -3 -107 94 -21 112
-95 244 -185 329 l-36 35 0 195 c0 167 2 197 17 213 23 25 68 23 87 -4z m967
-1119 l51 -11 -5 -40 c-3 -22 -8 -42 -11 -45 -3 -3 -32 2 -63 12 -32 11 -88
19 -124 19 -54 0 -74 -5 -119 -30 -59 -34 -112 -100 -130 -162 -37 -133 23
-291 131 -347 73 -39 196 -36 282 5 23 11 42 20 45 20 2 0 2 -15 0 -32 -3 -28
-10 -36 -62 -63 -56 -28 -67 -30 -170 -30 -97 0 -117 3 -154 23 -66 35 -115
85 -148 149 -27 53 -29 67 -29 163 0 95 3 111 29 167 43 94 127 166 231 199
50 16 178 17 246 3z m2210 0 l51 -11 -5 -40 c-3 -22 -8 -42 -11 -45 -3 -3 -32
2 -63 12 -32 11 -88 19 -124 19 -220 1 -337 -265 -204 -466 66 -100 237 -131
368 -68 23 11 42 20 45 20 2 0 2 -15 0 -32 -3 -28 -10 -36 -62 -63 -56 -28
-67 -30 -170 -30 -97 0 -117 3 -154 23 -66 35 -119 88 -149 150 -25 52 -28 67
-28 167 0 101 2 115 28 165 48 94 131 165 230 195 52 17 179 19 248 4z m2143
0 l56 -12 -6 -36 c-9 -51 -16 -55 -71 -38 -125 41 -215 28 -295 -42 -122 -108
-125 -329 -6 -437 56 -50 100 -66 184 -66 54 1 89 7 134 25 l61 25 -3 -31 c-3
-28 -11 -36 -63 -62 -49 -25 -75 -31 -144 -34 -100 -4 -148 8 -216 54 -158
108 -190 346 -69 518 84 119 256 172 438 136z m1827 0 l51 -11 -6 -41 c-4 -23
-9 -43 -11 -46 -3 -2 -28 3 -57 12 -83 24 -125 29 -167 17 -79 -21 -105 -100
-54 -161 17 -20 66 -50 137 -84 144 -67 176 -101 176 -184 0 -50 -5 -66 -32
-107 -49 -72 -117 -104 -218 -104 -96 0 -215 33 -206 56 3 9 6 23 6 32 1 43
16 47 77 20 32 -15 79 -29 104 -33 126 -18 213 70 164 165 -12 23 -43 43 -138
88 -67 33 -132 70 -144 83 -85 93 -41 250 83 294 47 17 165 19 235 4z m589 -1
l51 -12 -7 -40 c-3 -23 -8 -43 -10 -45 -2 -3 -28 3 -57 11 -28 9 -71 19 -94
23 -113 18 -187 -69 -135 -157 13 -23 47 -44 138 -88 161 -78 193 -116 181
-216 -8 -76 -76 -151 -158 -174 -69 -20 -189 -10 -272 22 -25 10 -27 14 -21
47 4 20 9 39 13 43 4 4 33 -3 66 -17 33 -13 83 -27 111 -31 94 -11 174 44 174
120 0 44 -53 90 -147 131 -149 63 -193 110 -193 203 0 80 42 142 120 176 43
19 168 21 240 4z m1904 1 l56 -12 -6 -36 c-9 -51 -16 -55 -71 -38 -126 41
-221 27 -298 -44 -120 -111 -121 -328 -3 -435 56 -50 100 -66 184 -66 54 1 89
7 134 25 l61 25 -3 -31 c-8 -79 -230 -126 -361 -77 -196 74 -268 346 -142 537
88 132 258 190 449 152z m2243 -10 c72 -28 144 -94 180 -168 25 -50 28 -67 28
-156 0 -93 -2 -105 -33 -167 -65 -133 -183 -208 -327 -208 -138 0 -245 64
-304 181 -64 129 -47 284 46 406 89 116 267 165 410 112z m-10287 -291 c62
-167 121 -325 131 -351 l19 -48 -52 3 -53 3 -31 90 -31 90 -153 0 -153 0 -31
-90 -31 -90 -47 -3 -46 -3 77 208 c43 114 101 272 130 351 l53 142 53 0 52 0
113 -302z m595 60 c91 -134 177 -261 190 -283 l24 -40 1 283 0 282 45 0 45 0
0 -350 0 -350 -44 0 -44 0 -200 288 c-109 158 -209 305 -220 327 l-21 40 -1
-327 0 -328 -40 0 -40 0 0 350 0 350 69 0 69 0 167 -242z m1615 230 c0 -7 -3
-23 -6 -35 -6 -22 -11 -23 -158 -25 l-151 -3 0 -110 0 -110 133 -3 c129 -3
132 -3 132 -25 0 -43 -10 -46 -140 -49 l-125 -3 -3 -127 -3 -128 167 0 166 0
-6 -22 c-3 -13 -6 -29 -6 -35 0 -10 -48 -13 -205 -13 l-205 0 0 350 0 350 205
0 c157 0 205 -3 205 -12z m488 -4 c76 -31 122 -95 122 -169 0 -70 -41 -136
-117 -186 -21 -15 -20 -16 78 -167 54 -83 99 -154 99 -157 0 -3 -24 -5 -54 -5
l-54 0 -79 138 -79 137 -64 0 -65 0 -3 -137 -3 -138 -44 0 -45 0 0 350 0 350
135 0 c100 0 145 -4 173 -16z m1342 -299 l0 -315 146 0 146 0 -6 -22 c-3 -13
-6 -29 -6 -35 0 -10 -45 -13 -190 -13 l-190 0 0 350 0 350 50 0 50 0 0 -315z
m882 -30 c70 -187 127 -343 127 -347 1 -5 -21 -8 -48 -8 l-49 0 -33 95 -32 95
-151 0 -152 0 -33 -95 -33 -95 -44 0 c-24 0 -44 1 -44 3 0 3 223 604 249 670
10 26 14 28 63 25 l53 -3 127 -340z m1558 -5 l0 -350 -45 0 -45 0 0 350 0 350
45 0 45 0 0 -350z m626 334 c-3 -9 -6 -24 -6 -35 0 -18 -9 -19 -155 -19 l-155
0 0 -115 0 -115 136 0 136 0 -6 -22 c-3 -13 -6 -29 -6 -35 0 -10 -33 -13 -130
-13 l-130 0 0 -165 0 -165 -50 0 -50 0 0 350 0 350 211 0 c188 0 210 -2 205
-16z m254 -334 l0 -350 -50 0 -50 0 0 350 0 350 50 0 50 0 0 -350z m1326 15
c68 -181 126 -338 130 -347 5 -16 -1 -18 -44 -18 l-50 0 -31 86 c-17 47 -31
89 -31 95 0 5 -64 9 -154 9 l-154 0 -32 -95 -32 -95 -45 0 c-32 0 -44 4 -41
13 3 6 60 164 129 350 l124 337 54 -2 54 -3 123 -330z m700 313 c-3 -13 -6
-29 -6 -35 0 -10 -30 -13 -115 -13 l-115 0 0 -315 0 -315 -50 0 -50 0 0 315 0
315 -115 0 c-121 0 -121 0 -109 48 l6 22 280 0 280 0 -6 -22z m234 -328 l0
-350 -50 0 -50 0 0 350 0 350 50 0 50 0 0 -350z m1330 154 c74 -108 160 -235
190 -283 l56 -87 -4 283 -4 283 46 0 46 0 0 -350 0 -350 -42 0 -43 1 -195 281
c-107 155 -205 301 -218 325 -12 24 -23 43 -25 43 -1 0 -1 -146 1 -325 l3
-325 -45 0 -46 0 0 350 0 350 73 0 72 -1 135 -195z m323 -605 c54 -15 47 -35
-15 -48 -65 -14 -12383 -11 -12410 3 -28 13 -21 35 15 45 47 13 12360 14
12410 0z m-11275 -144 c5 -5 -26 -234 -34 -247 -3 -4 -25 -8 -49 -8 -54 0 -59
7 -74 119 -15 117 -14 139 7 144 21 5 144 -1 150 -8z m-999 -77 c8 -43 17 -78
20 -78 4 0 13 35 21 78 l15 77 82 3 c92 3 86 8 98 -88 11 -83 17 -82 34 6 l16
79 70 0 70 0 -3 -30 c-2 -16 -20 -97 -41 -180 l-37 -150 -92 -3 -91 -3 -10 38
c-6 21 -13 57 -17 81 -4 23 -9 40 -13 37 -3 -4 -13 -39 -21 -78 l-15 -72 -92
-3 -92 -3 -10 38 c-20 77 -61 284 -61 309 0 25 1 25 78 22 l77 -3 14 -77z
m4297 21 c61 -29 89 -78 89 -154 0 -67 -21 -114 -68 -149 -39 -29 -188 -31
-230 -3 -57 37 -82 110 -65 190 10 51 55 112 92 127 41 17 138 11 182 -11z
m1400 -5 c63 -47 87 -110 72 -191 -9 -53 -41 -98 -82 -115 -47 -20 -174 -16
-212 6 -104 62 -92 254 18 310 47 24 167 18 204 -10z m-4928 -20 c3 -31 2 -32
-55 -40 -49 -8 -58 -12 -61 -31 -3 -19 2 -22 44 -25 50 -3 72 -22 61 -52 -5
-12 -19 -16 -57 -16 -47 0 -50 -2 -50 -25 0 -23 3 -25 49 -25 51 0 61 -9 61
-51 0 -18 -8 -19 -129 -19 -113 0 -130 2 -136 18 -10 23 -19 245 -11 277 l6
25 138 -2 137 -3 3 -31z m551 16 c18 -5 42 -17 52 -26 26 -23 26 -89 0 -111
-18 -15 -18 -19 -6 -43 8 -15 21 -32 29 -39 26 -22 19 -39 -29 -67 -53 -31
-58 -28 -111 50 l-33 49 -3 -54 -3 -54 -69 -3 c-38 -2 -73 1 -78 6 -12 12 -16
283 -4 300 6 11 31 12 115 7 58 -4 121 -11 140 -15z m435 4 c16 -42 7 -52 -51
-60 -49 -8 -58 -12 -61 -31 -3 -19 2 -22 44 -25 50 -3 72 -22 61 -52 -5 -12
-19 -16 -57 -16 -47 0 -50 -2 -50 -25 0 -23 3 -25 49 -25 51 0 61 -9 61 -51 0
-18 -9 -19 -129 -19 -93 0 -132 4 -138 12 -10 17 -17 249 -9 282 l6 26 134 -1
c111 0 135 -3 140 -15z m384 -36 c3 -43 5 -48 28 -48 22 0 24 4 24 50 l0 50
85 0 85 0 0 -160 0 -160 -79 0 -78 0 -5 50 c-6 57 -5 55 -35 64 -22 7 -23 5
-23 -53 0 -57 -2 -61 -26 -67 -38 -10 -125 1 -135 17 -5 8 -9 81 -9 162 l0
148 83 -3 82 -3 3 -47z m572 39 c0 -7 3 -22 6 -34 6 -20 2 -22 -55 -29 -56 -6
-61 -9 -61 -30 0 -22 4 -24 45 -24 40 0 47 -3 56 -27 13 -34 0 -43 -63 -43
-44 0 -48 -2 -48 -25 0 -24 3 -25 55 -25 37 0 55 -4 55 -12 0 -7 3 -23 6 -35
l6 -23 -135 0 c-131 0 -135 1 -141 23 -8 30 -8 282 0 290 4 4 67 6 140 6 98 0
134 -3 134 -12z m330 -8 c58 -14 75 -32 75 -79 0 -32 -6 -47 -21 -59 l-21 -16
30 -44 c35 -51 31 -64 -26 -94 -44 -23 -51 -19 -99 56 l-33 52 -3 -58 -3 -57
-73 0 -73 0 -7 38 c-11 71 -7 270 7 276 17 7 204 -4 247 -15z m433 13 c2 -4 7
-19 11 -34 6 -27 5 -27 -54 -34 -33 -4 -60 -10 -60 -14 0 -5 -3 -15 -6 -24 -5
-13 2 -16 45 -16 47 0 52 -3 62 -27 13 -34 0 -43 -63 -43 -44 0 -48 -2 -48
-25 0 -24 3 -25 55 -25 l55 0 0 -35 0 -35 -129 0 c-108 0 -130 3 -135 16 -8
21 -8 289 1 297 8 9 261 8 266 -1z m490 1 c3 -5 7 -21 8 -38 4 -29 3 -30 -43
-33 -46 -3 -48 -5 -48 -33 0 -22 5 -29 19 -29 38 0 51 -11 51 -46 0 -34 -4
-37 -65 -46 -16 -3 -21 -12 -23 -46 -4 -49 -16 -55 -103 -50 l-54 3 -7 45 c-3
25 -7 98 -7 163 l-1 117 134 0 c74 0 137 -3 139 -7z m749 -14 c65 -17 88 -81
48 -132 -11 -14 -20 -27 -20 -30 0 -2 14 -21 30 -42 17 -21 30 -41 30 -46 0
-9 -82 -59 -97 -59 -6 0 -28 25 -49 56 -41 60 -52 57 -53 -13 l-1 -33 -74 0
-73 0 -7 77 c-10 126 -8 231 7 237 17 7 215 -4 259 -15z m432 -34 c14 -30 29
-55 34 -55 5 0 14 17 20 38 6 20 18 46 25 56 13 18 16 18 65 2 28 -9 55 -23
62 -31 14 -17 -141 -345 -164 -345 -27 0 -126 41 -126 52 0 6 9 25 20 43 l20
32 -23 34 c-39 58 -87 148 -87 163 0 10 84 54 127 66 1 0 13 -25 27 -55z m847
28 c7 -18 8 -63 4 -120 -7 -104 -3 -118 26 -103 17 10 19 22 19 125 l0 114 33
6 c17 4 55 5 82 3 l50 -3 0 -155 0 -155 -60 -7 c-42 -4 -66 -2 -81 7 -16 11
-24 11 -45 -1 -13 -7 -49 -13 -80 -14 -93 0 -114 42 -103 218 l6 112 69 0 c67
0 70 -1 80 -27z m-7275 -1398 c18 -19 23 -31 19 -48 -14 -47 -15 -47 -447 -47
-395 0 -409 1 -428 20 -25 25 -25 41 1 74 l20 26 405 0 405 0 25 -25z"/>
<path d="M16244 8116 c-66 -21 -111 -62 -146 -133 -58 -118 -40 -263 45 -351
97 -102 255 -104 349 -5 92 97 101 287 19 399 -58 78 -179 119 -267 90z"/>
<path d="M5937 7942 c-31 -97 -57 -180 -57 -184 0 -5 54 -8 121 -8 98 0 120 3
117 14 -10 42 -114 356 -118 356 -3 0 -31 -80 -63 -178z"/>
<path d="M8654 8107 c-2 -7 -3 -69 -2 -138 l3 -124 78 -3 c77 -3 79 -2 112 31
84 84 57 212 -52 238 -58 13 -133 11 -139 -4z"/>
<path d="M10845 7947 c-33 -98 -61 -183 -63 -188 -2 -5 49 -9 122 -9 69 0 126
1 126 3 0 1 -29 85 -63 187 l-62 185 -60 -178z"/>
<path d="M14612 7943 c-34 -103 -60 -189 -58 -190 2 -2 57 -2 123 -1 l119 3
-61 187 -61 187 -62 -186z"/>
<path d="M9365 7130 c-12 -19 -17 -194 -6 -210 18 -26 25 -1 29 101 4 95 -5
138 -23 109z"/>
<path d="M10746 7103 c-11 -71 -7 -195 6 -191 31 11 39 228 8 228 -4 0 -10
-17 -14 -37z"/>
<path d="M6380 7100 c0 -32 15 -38 44 -17 23 17 11 47 -20 47 -20 0 -24 -5
-24 -30z"/>
<path d="M8110 7100 c0 -33 19 -40 40 -15 16 20 5 45 -20 45 -16 0 -20 -7 -20
-30z"/>
<path d="M9770 7100 c0 -16 4 -30 9 -30 25 0 41 14 41 36 0 19 -5 24 -25 24
-21 0 -25 -5 -25 -30z"/>
</g>
</svg>
