<svg xmlns="http://www.w3.org/2000/svg" version="1.1" xmlns:xlink="http://www.w3.org/1999/xlink" xmlns:svgjs="http://svgjs.dev/svgjs" width="1000" height="660" viewBox="0 0 1000 660"><g transform="matrix(1,0,0,1,0.5570011263918104,0.2672064777327705)"><svg viewBox="0 0 374 247" data-background-color="#ffffff" preserveAspectRatio="xMidYMid meet" height="660" width="1000" xmlns="http://www.w3.org/2000/svg" xmlns:xlink="http://www.w3.org/1999/xlink"><defs></defs><g id="tight-bounds" transform="matrix(1,0,0,1,-0.2083183789133045,-0.09999999999999432)"><svg viewBox="0 0 374.4166368001838 247.2" height="247.2" width="374.4166368001838"><g><svg viewBox="0 0 395.52 261.1330117047619" height="247.2" width="374.4166368001838"><g transform="matrix(1,0,0,1,0,190.35220224203547)"><svg viewBox="0 0 395.52 70.78080946272638" height="70.78080946272638" width="395.52"><g><svg viewBox="0 0 395.52 70.78080946272638" height="70.78080946272638" width="395.52"><g><svg viewBox="0 0 395.52 38.17578646329837" height="38.17578646329837" width="395.52"><g transform="matrix(1,0,0,1,0,0)"><svg width="395.52" viewBox="1.9500000476837158 -39.75 421.5 40.5" height="38.17578646329837" data-palette-color="#77d4fc"><path d="M15.7-35.3Q18.55-35.3 20.73-34.4 22.9-33.5 25-31.7L25-31.7 21.8-27.95Q19-30.3 16.05-30.3L16.05-30.3Q12.65-30.3 10.7-27.25 8.75-24.2 8.75-17.35L8.75-17.35Q8.75-10.65 10.7-7.55 12.65-4.45 16.1-4.45L16.1-4.45Q17.9-4.45 19.25-5.13 20.6-5.8 22.25-7.1L22.25-7.1 25.35-3.4Q23.6-1.6 21.2-0.43 18.8 0.75 15.8 0.75L15.8 0.75Q11.65 0.75 8.53-1.28 5.4-3.3 3.68-7.38 1.95-11.45 1.95-17.35L1.95-17.35Q1.95-23.15 3.75-27.2 5.55-31.25 8.65-33.27 11.75-35.3 15.7-35.3L15.7-35.3ZM47.25-6.65Q47.25-5.25 47.65-4.58 48.05-3.9 48.95-3.5L48.95-3.5 47.65 0.65Q45.5 0.4 44.17-0.45 42.85-1.3 42.2-3.1L42.2-3.1Q39.75 0.75 35.1 0.75L35.1 0.75Q31.55 0.75 29.45-1.5 27.35-3.75 27.35-7.4L27.35-7.4Q27.35-11.7 30.2-13.98 33.05-16.25 38.45-16.25L38.45-16.25 41.1-16.25 41.1-17.9Q41.1-20.4 40.1-21.45 39.1-22.5 36.85-22.5L36.85-22.5Q34.25-22.5 30.45-21.15L30.45-21.15 29-25.3Q33.55-27.2 37.85-27.2L37.85-27.2Q47.25-27.2 47.25-18.25L47.25-18.25 47.25-6.65ZM36.8-3.8Q39.55-3.8 41.1-7.05L41.1-7.05 41.1-12.55 39.1-12.55Q33.6-12.55 33.6-7.85L33.6-7.85Q33.6-5.85 34.45-4.83 35.3-3.8 36.8-3.8L36.8-3.8ZM67.05-27.2Q70.19-27.2 72-25.1 73.8-23 73.8-19.4L73.8-19.4 73.8 0 67.55 0 67.55-18.55Q67.55-20.65 66.87-21.53 66.19-22.4 64.89-22.4L64.89-22.4Q63.55-22.4 62.39-21.4 61.24-20.4 60.14-18.45L60.14-18.45 60.14 0 53.89 0 53.89-26.45 59.34-26.45 59.8-23Q61.24-25.05 63.02-26.13 64.8-27.2 67.05-27.2L67.05-27.2ZM90.14-27.2Q92.49-27.2 94.39-26.45 96.29-25.7 97.99-24.15L97.99-24.15 95.24-20.5Q92.99-22.3 90.54-22.3L90.54-22.3Q87.99-22.3 86.67-20.13 85.34-17.95 85.34-13.1L85.34-13.1Q85.34-8.3 86.67-6.3 87.99-4.3 90.54-4.3L90.54-4.3Q91.79-4.3 92.84-4.73 93.89-5.15 95.19-6.05L95.19-6.05 97.99-2.3Q94.54 0.75 90.24 0.75L90.24 0.75Q84.84 0.75 81.79-2.83 78.74-6.4 78.74-13L78.74-13Q78.74-17.3 80.14-20.53 81.54-23.75 84.12-25.48 86.69-27.2 90.14-27.2L90.14-27.2ZM121.89-13.85Q121.89-13.4 121.74-11.3L121.74-11.3 106.79-11.3Q107.09-7.3 108.49-5.65 109.89-4 112.39-4L112.39-4Q113.99-4 115.39-4.55 116.79-5.1 118.39-6.25L118.39-6.25 120.99-2.7Q117.04 0.75 111.94 0.75L111.94 0.75Q106.39 0.75 103.39-2.9 100.39-6.55 100.39-13.05L100.39-13.05Q100.39-19.45 103.27-23.33 106.14-27.2 111.29-27.2L111.29-27.2Q116.29-27.2 119.09-23.75 121.89-20.3 121.89-13.85L121.89-13.85ZM115.74-15.35L115.74-15.65Q115.74-19.25 114.69-21.03 113.64-22.8 111.34-22.8L111.34-22.8Q109.24-22.8 108.12-21.08 106.99-19.35 106.79-15.35L106.79-15.35 115.74-15.35ZM139.09-27.15Q140.14-27.15 141.44-26.8L141.44-26.8 140.39-20.75Q139.34-21.05 138.29-21.05L138.29-21.05Q136.19-21.05 134.96-19.4 133.74-17.75 133.09-14.4L133.09-14.4 133.09 0 126.84 0 126.84-26.45 132.29-26.45 132.79-21.55Q133.74-24.3 135.34-25.73 136.94-27.15 139.09-27.15L139.09-27.15ZM165.83-27.2Q168.18-27.2 170.08-26.45 171.98-25.7 173.68-24.15L173.68-24.15 170.93-20.5Q168.68-22.3 166.23-22.3L166.23-22.3Q163.68-22.3 162.36-20.13 161.03-17.95 161.03-13.1L161.03-13.1Q161.03-8.3 162.36-6.3 163.68-4.3 166.23-4.3L166.23-4.3Q167.48-4.3 168.53-4.73 169.58-5.15 170.88-6.05L170.88-6.05 173.68-2.3Q170.23 0.75 165.93 0.75L165.93 0.75Q160.53 0.75 157.48-2.83 154.43-6.4 154.43-13L154.43-13Q154.43-17.3 155.83-20.53 157.23-23.75 159.81-25.48 162.38-27.2 165.83-27.2L165.83-27.2ZM183.38 0.75Q180.48 0.75 178.86-0.95 177.23-2.65 177.23-5.7L177.23-5.7 177.23-37.05 183.48-37.7 183.48-5.9Q183.48-4.3 184.83-4.3L184.83-4.3Q185.48-4.3 186.08-4.5L186.08-4.5 187.33-0.2Q185.68 0.75 183.38 0.75L183.38 0.75ZM209.08-6.65Q209.08-5.25 209.48-4.58 209.88-3.9 210.78-3.5L210.78-3.5 209.48 0.65Q207.33 0.4 206-0.45 204.68-1.3 204.03-3.1L204.03-3.1Q201.58 0.75 196.93 0.75L196.93 0.75Q193.38 0.75 191.28-1.5 189.18-3.75 189.18-7.4L189.18-7.4Q189.18-11.7 192.03-13.98 194.88-16.25 200.28-16.25L200.28-16.25 202.93-16.25 202.93-17.9Q202.93-20.4 201.93-21.45 200.93-22.5 198.68-22.5L198.68-22.5Q196.08-22.5 192.28-21.15L192.28-21.15 190.83-25.3Q195.38-27.2 199.68-27.2L199.68-27.2Q209.08-27.2 209.08-18.25L209.08-18.25 209.08-6.65ZM198.63-3.8Q201.38-3.8 202.93-7.05L202.93-7.05 202.93-12.55 200.93-12.55Q195.43-12.55 195.43-7.85L195.43-7.85Q195.43-5.85 196.28-4.83 197.13-3.8 198.63-3.8L198.63-3.8ZM223.53-27.2Q228.48-27.2 232.13-24.05L232.13-24.05 229.68-20.5Q226.73-22.6 223.83-22.6L223.83-22.6Q222.18-22.6 221.28-21.85 220.38-21.1 220.38-19.8L220.38-19.8Q220.38-18.85 220.8-18.25 221.23-17.65 222.28-17.07 223.33-16.5 225.43-15.8L225.43-15.8Q229.23-14.55 231.08-12.7 232.93-10.85 232.93-7.6L232.93-7.6Q232.93-3.7 230-1.48 227.08 0.75 222.63 0.75L222.63 0.75Q219.68 0.75 217.23-0.23 214.78-1.2 212.98-2.95L212.98-2.95 216.08-6.4Q219.18-3.9 222.43-3.9L222.43-3.9Q224.33-3.9 225.4-4.75 226.48-5.6 226.48-7.15L226.48-7.15Q226.48-8.3 226.05-9 225.63-9.7 224.53-10.3 223.43-10.9 221.18-11.6L221.18-11.6Q217.48-12.85 215.8-14.75 214.13-16.65 214.13-19.45L214.13-19.45Q214.13-21.65 215.28-23.43 216.43-25.2 218.58-26.2 220.73-27.2 223.53-27.2L223.53-27.2ZM245.17-27.2Q250.12-27.2 253.77-24.05L253.77-24.05 251.32-20.5Q248.37-22.6 245.47-22.6L245.47-22.6Q243.82-22.6 242.92-21.85 242.02-21.1 242.02-19.8L242.02-19.8Q242.02-18.85 242.45-18.25 242.87-17.65 243.92-17.07 244.97-16.5 247.07-15.8L247.07-15.8Q250.87-14.55 252.72-12.7 254.57-10.85 254.57-7.6L254.57-7.6Q254.57-3.7 251.65-1.48 248.72 0.75 244.27 0.75L244.27 0.75Q241.32 0.75 238.87-0.23 236.42-1.2 234.62-2.95L234.62-2.95 237.72-6.4Q240.82-3.9 244.07-3.9L244.07-3.9Q245.97-3.9 247.05-4.75 248.12-5.6 248.12-7.15L248.12-7.15Q248.12-8.3 247.7-9 247.27-9.7 246.17-10.3 245.07-10.9 242.82-11.6L242.82-11.6Q239.12-12.85 237.45-14.75 235.77-16.65 235.77-19.45L235.77-19.45Q235.77-21.65 236.92-23.43 238.07-25.2 240.22-26.2 242.37-27.2 245.17-27.2L245.17-27.2ZM259.02-26.45L265.27-26.45 265.27 0 259.02 0 259.02-26.45ZM262.17-39.75Q263.87-39.75 264.95-38.68 266.02-37.6 266.02-35.95L266.02-35.95Q266.02-34.3 264.95-33.23 263.87-32.15 262.17-32.15L262.17-32.15Q260.47-32.15 259.4-33.23 258.32-34.3 258.32-35.95L258.32-35.95Q258.32-37.6 259.4-38.68 260.47-39.75 262.17-39.75L262.17-39.75ZM281.97-32.95Q280.32-32.95 279.62-32.18 278.92-31.4 278.92-29.65L278.92-29.65 278.92-26.45 284.52-26.45 283.82-21.95 278.92-21.95 278.92 0 272.67 0 272.67-21.95 268.87-21.95 268.87-26.45 272.67-26.45 272.67-29.6Q272.67-33.25 274.89-35.48 277.12-37.7 281.27-37.7L281.27-37.7Q284.57-37.7 287.57-36.2L287.57-36.2 285.82-32.05Q283.87-32.95 281.97-32.95L281.97-32.95ZM287.77-26.45L294.02-26.45 294.02 0 287.77 0 287.77-26.45ZM290.92-39.75Q292.62-39.75 293.69-38.68 294.77-37.6 294.77-35.95L294.77-35.95Q294.77-34.3 293.69-33.23 292.62-32.15 290.92-32.15L290.92-32.15Q289.22-32.15 288.14-33.23 287.07-34.3 287.07-35.95L287.07-35.95Q287.07-37.6 288.14-38.68 289.22-39.75 290.92-39.75L290.92-39.75ZM310.61-27.2Q312.96-27.2 314.86-26.45 316.76-25.7 318.46-24.15L318.46-24.15 315.71-20.5Q313.46-22.3 311.01-22.3L311.01-22.3Q308.46-22.3 307.14-20.13 305.81-17.95 305.81-13.1L305.81-13.1Q305.81-8.3 307.14-6.3 308.46-4.3 311.01-4.3L311.01-4.3Q312.26-4.3 313.31-4.73 314.36-5.15 315.66-6.05L315.66-6.05 318.46-2.3Q315.01 0.75 310.71 0.75L310.71 0.75Q305.31 0.75 302.26-2.83 299.21-6.4 299.21-13L299.21-13Q299.21-17.3 300.61-20.53 302.01-23.75 304.59-25.48 307.16-27.2 310.61-27.2L310.61-27.2ZM340.36-6.65Q340.36-5.25 340.76-4.58 341.16-3.9 342.06-3.5L342.06-3.5 340.76 0.65Q338.61 0.4 337.29-0.45 335.96-1.3 335.31-3.1L335.31-3.1Q332.86 0.75 328.21 0.75L328.21 0.75Q324.66 0.75 322.56-1.5 320.46-3.75 320.46-7.4L320.46-7.4Q320.46-11.7 323.31-13.98 326.16-16.25 331.56-16.25L331.56-16.25 334.21-16.25 334.21-17.9Q334.21-20.4 333.21-21.45 332.21-22.5 329.96-22.5L329.96-22.5Q327.36-22.5 323.56-21.15L323.56-21.15 322.11-25.3Q326.66-27.2 330.96-27.2L330.96-27.2Q340.36-27.2 340.36-18.25L340.36-18.25 340.36-6.65ZM329.91-3.8Q332.66-3.8 334.21-7.05L334.21-7.05 334.21-12.55 332.21-12.55Q326.71-12.55 326.71-7.85L326.71-7.85Q326.71-5.85 327.56-4.83 328.41-3.8 329.91-3.8L329.91-3.8ZM358.91-5.15L361.11-1.25Q359.81-0.25 358.23 0.25 356.66 0.75 355.01 0.75L355.01 0.75Q351.36 0.75 349.43-1.35 347.51-3.45 347.51-7.2L347.51-7.2 347.51-21.95 343.96-21.95 343.96-26.45 347.51-26.45 347.51-32.3 353.76-33.05 353.76-26.45 359.31-26.45 358.66-21.95 353.76-21.95 353.76-7.25Q353.76-5.75 354.33-5.03 354.91-4.3 356.16-4.3L356.16-4.3Q357.51-4.3 358.91-5.15L358.91-5.15ZM364.11-26.45L370.36-26.45 370.36 0 364.11 0 364.11-26.45ZM367.26-39.75Q368.96-39.75 370.03-38.68 371.11-37.6 371.11-35.95L371.11-35.95Q371.11-34.3 370.03-33.23 368.96-32.15 367.26-32.15L367.26-32.15Q365.56-32.15 364.48-33.23 363.41-34.3 363.41-35.95L363.41-35.95Q363.41-37.6 364.48-38.68 365.56-39.75 367.26-39.75L367.26-39.75ZM386.95-27.2Q392.3-27.2 395.3-23.6 398.3-20 398.3-13.25L398.3-13.25Q398.3-6.75 395.28-3 392.25 0.75 386.95 0.75L386.95 0.75Q381.6 0.75 378.58-2.93 375.55-6.6 375.55-13.25L375.55-13.25Q375.55-19.8 378.58-23.5 381.6-27.2 386.95-27.2L386.95-27.2ZM386.95-22.45Q384.5-22.45 383.3-20.28 382.1-18.1 382.1-13.25L382.1-13.25Q382.1-8.35 383.3-6.18 384.5-4 386.95-4L386.95-4Q389.4-4 390.6-6.2 391.8-8.4 391.8-13.25L391.8-13.25Q391.8-18.15 390.6-20.3 389.4-22.45 386.95-22.45L386.95-22.45ZM416.7-27.2Q419.85-27.2 421.65-25.1 423.45-23 423.45-19.4L423.45-19.4 423.45 0 417.2 0 417.2-18.55Q417.2-20.65 416.53-21.53 415.85-22.4 414.55-22.4L414.55-22.4Q413.2-22.4 412.05-21.4 410.9-20.4 409.8-18.45L409.8-18.45 409.8 0 403.55 0 403.55-26.45 409-26.45 409.45-23Q410.9-25.05 412.68-26.13 414.45-27.2 416.7-27.2L416.7-27.2Z" opacity="1" transform="matrix(1,0,0,1,0,0)" fill="#77d4fc" class="undefined-text-0" data-fill-palette-color="primary" id="text-0"></path></svg></g></svg></g><g transform="matrix(1,0,0,1,101.88354292436567,47.188173428408)"><svg viewBox="0 0 191.75291415126864 23.592636034318392" height="23.592636034318392" width="191.75291415126864"><g transform="matrix(1,0,0,1,0,0)"><svg width="191.75291415126864" viewBox="1.7000000476837158 -37 381.9599914550781 47" height="23.592636034318392" data-palette-color="#77d4fc"><path d="M9.2 0L1.7-25.4 3.5-25.4 10.25-1.8 10.4-1.8 17.55-25.4 19.25-25.4 26.45-1.8 26.6-1.8 33.35-25.4 35.05-25.4 27.55 0 25.4 0 18.45-22.8 18.3-22.8 11.35 0 9.2 0ZM50.45 0.6L50.45 0.6Q45.4 0.6 42.47-2.8 39.55-6.2 39.55-12.7L39.55-12.7Q39.55-19.15 42.4-22.58 45.25-26 50.25-26L50.25-26Q52.6-26 54.52-25.1 56.45-24.2 57.82-22.55 59.2-20.9 59.95-18.57 60.7-16.25 60.7-13.4L60.7-13.4 60.7-12.6 41.4-12.6 41.4-11.25Q41.4-8.9 42-7 42.6-5.1 43.77-3.75 44.95-2.4 46.62-1.68 48.3-0.95 50.45-0.95L50.45-0.95Q56.5-0.95 58.8-6.75L58.8-6.75 60.15-6Q59-3 56.55-1.2 54.1 0.6 50.45 0.6ZM50.25-24.45L50.25-24.45Q48.15-24.45 46.52-23.73 44.9-23 43.75-21.65 42.6-20.3 42-18.4 41.4-16.5 41.4-14.2L41.4-14.2 41.4-14 58.8-14 58.8-14.3Q58.8-16.6 58.17-18.48 57.55-20.35 56.42-21.68 55.3-23 53.72-23.73 52.15-24.45 50.25-24.45ZM68.6-24.15L66.95-24.15 66.95-37 68.6-37 68.6-24.15ZM80.14 0L78.39 0 78.39-25.4 80.14-25.4 80.14-20.95 80.34-20.95Q81.14-22.75 82.94-24.08 84.74-25.4 88.14-25.4L88.14-25.4 90.04-25.4 90.04-23.75 87.84-23.75Q86.29-23.75 84.89-23.35 83.49-22.95 82.44-22.15 81.39-21.35 80.77-20.18 80.14-19 80.14-17.45L80.14-17.45 80.14 0ZM104.44 0.6L104.44 0.6Q99.39 0.6 96.47-2.8 93.54-6.2 93.54-12.7L93.54-12.7Q93.54-19.15 96.39-22.58 99.24-26 104.24-26L104.24-26Q106.59-26 108.52-25.1 110.44-24.2 111.82-22.55 113.19-20.9 113.94-18.57 114.69-16.25 114.69-13.4L114.69-13.4 114.69-12.6 95.39-12.6 95.39-11.25Q95.39-8.9 95.99-7 96.59-5.1 97.77-3.75 98.94-2.4 100.62-1.68 102.29-0.95 104.44-0.95L104.44-0.95Q110.49-0.95 112.79-6.75L112.79-6.75 114.14-6Q112.99-3 110.54-1.2 108.09 0.6 104.44 0.6ZM104.24-24.45L104.24-24.45Q102.14-24.45 100.52-23.73 98.89-23 97.74-21.65 96.59-20.3 95.99-18.4 95.39-16.5 95.39-14.2L95.39-14.2 95.39-14 112.79-14 112.79-14.3Q112.79-16.6 112.17-18.48 111.54-20.35 110.42-21.68 109.29-23 107.72-23.73 106.14-24.45 104.24-24.45ZM134.34 0L134.34-37 136.09-37 136.09-21.5 136.24-21.5Q136.99-23.35 138.86-24.68 140.74-26 144.04-26L144.04-26Q148.24-26 150.46-23.53 152.69-21.05 152.69-16.3L152.69-16.3 152.69 0 150.94 0 150.94-16Q150.94-20.4 149.06-22.43 147.19-24.45 143.64-24.45L143.64-24.45Q142.19-24.45 140.81-24.05 139.44-23.65 138.39-22.85 137.34-22.05 136.71-20.85 136.09-19.65 136.09-18.05L136.09-18.05 136.09 0 134.34 0ZM171.03 0.6L171.03 0.6Q165.98 0.6 163.06-2.8 160.13-6.2 160.13-12.7L160.13-12.7Q160.13-19.15 162.98-22.58 165.83-26 170.83-26L170.83-26Q173.18-26 175.11-25.1 177.03-24.2 178.41-22.55 179.78-20.9 180.53-18.57 181.28-16.25 181.28-13.4L181.28-13.4 181.28-12.6 161.98-12.6 161.98-11.25Q161.98-8.9 162.58-7 163.18-5.1 164.36-3.75 165.53-2.4 167.21-1.68 168.88-0.95 171.03-0.95L171.03-0.95Q177.08-0.95 179.38-6.75L179.38-6.75 180.73-6Q179.58-3 177.13-1.2 174.68 0.6 171.03 0.6ZM170.83-24.45L170.83-24.45Q168.73-24.45 167.11-23.73 165.48-23 164.33-21.65 163.18-20.3 162.58-18.4 161.98-16.5 161.98-14.2L161.98-14.2 161.98-14 179.38-14 179.38-14.3Q179.38-16.6 178.76-18.48 178.13-20.35 177.01-21.68 175.88-23 174.31-23.73 172.73-24.45 170.83-24.45ZM190.88 0L189.13 0 189.13-25.4 190.88-25.4 190.88-20.95 191.08-20.95Q191.88-22.75 193.68-24.08 195.48-25.4 198.88-25.4L198.88-25.4 200.78-25.4 200.78-23.75 198.58-23.75Q197.03-23.75 195.63-23.35 194.23-22.95 193.18-22.15 192.13-21.35 191.51-20.18 190.88-19 190.88-17.45L190.88-17.45 190.88 0ZM215.18 0.6L215.18 0.6Q210.13 0.6 207.2-2.8 204.28-6.2 204.28-12.7L204.28-12.7Q204.28-19.15 207.13-22.58 209.98-26 214.98-26L214.98-26Q217.33-26 219.25-25.1 221.18-24.2 222.55-22.55 223.93-20.9 224.68-18.57 225.43-16.25 225.43-13.4L225.43-13.4 225.43-12.6 206.13-12.6 206.13-11.25Q206.13-8.9 206.73-7 207.33-5.1 208.5-3.75 209.68-2.4 211.35-1.68 213.03-0.95 215.18-0.95L215.18-0.95Q221.23-0.95 223.53-6.75L223.53-6.75 224.88-6Q223.73-3 221.28-1.2 218.83 0.6 215.18 0.6ZM214.98-24.45L214.98-24.45Q212.88-24.45 211.25-23.73 209.63-23 208.48-21.65 207.33-20.3 206.73-18.4 206.13-16.5 206.13-14.2L206.13-14.2 206.13-14 223.53-14 223.53-14.3Q223.53-16.6 222.9-18.48 222.28-20.35 221.15-21.68 220.03-23 218.45-23.73 216.88-24.45 214.98-24.45ZM246.12 0L246.12-23.85 241.57-23.85 241.57-25.4 246.12-25.4 246.12-34.45Q246.12-37 248.57-37L248.57-37 253.57-37 253.57-35.45 247.87-35.45 247.87-25.4 253.57-25.4 253.57-23.85 247.87-23.85 247.87 0 246.12 0ZM268.12 0.6L268.12 0.6Q263.12 0.6 260.25-2.8 257.37-6.2 257.37-12.7L257.37-12.7Q257.37-19.25 260.25-22.63 263.12-26 268.12-26L268.12-26Q273.12-26 276-22.63 278.87-19.25 278.87-12.7L278.87-12.7Q278.87-6.2 276-2.8 273.12 0.6 268.12 0.6ZM268.12-0.95L268.12-0.95Q272.37-0.95 274.67-3.73 276.97-6.5 276.97-11.35L276.97-11.35 276.97-14.05Q276.97-18.95 274.67-21.7 272.37-24.45 268.12-24.45L268.12-24.45Q263.87-24.45 261.57-21.7 259.27-18.95 259.27-14.05L259.27-14.05 259.27-11.35Q259.27-6.5 261.57-3.73 263.87-0.95 268.12-0.95ZM288.47 0L286.72 0 286.72-25.4 288.47-25.4 288.47-20.95 288.67-20.95Q289.47-22.75 291.27-24.08 293.07-25.4 296.47-25.4L296.47-25.4 298.37-25.4 298.37-23.75 296.17-23.75Q294.62-23.75 293.22-23.35 291.82-22.95 290.77-22.15 289.72-21.35 289.09-20.18 288.47-19 288.47-17.45L288.47-17.45 288.47 0ZM322.51-1.9L331.01-25.4 332.76-25.4 320.36 8.35Q319.96 9.25 319.41 9.63 318.86 10 317.76 10L317.76 10 314.06 10 314.06 8.45 318.56 8.45 321.56 0.5 312.01-25.4 313.86-25.4 322.36-1.9 322.51-1.9ZM347.11 0.6L347.11 0.6Q342.11 0.6 339.24-2.8 336.36-6.2 336.36-12.7L336.36-12.7Q336.36-19.25 339.24-22.63 342.11-26 347.11-26L347.11-26Q352.11-26 354.99-22.63 357.86-19.25 357.86-12.7L357.86-12.7Q357.86-6.2 354.99-2.8 352.11 0.6 347.11 0.6ZM347.11-0.95L347.11-0.95Q351.36-0.95 353.66-3.73 355.96-6.5 355.96-11.35L355.96-11.35 355.96-14.05Q355.96-18.95 353.66-21.7 351.36-24.45 347.11-24.45L347.11-24.45Q342.86-24.45 340.56-21.7 338.26-18.95 338.26-14.05L338.26-14.05 338.26-11.35Q338.26-6.5 340.56-3.73 342.86-0.95 347.11-0.95ZM381.91 0L381.91-3.9 381.71-3.9Q381.36-3.05 380.73-2.23 380.11-1.4 379.18-0.78 378.26-0.15 376.96 0.23 375.66 0.6 373.96 0.6L373.96 0.6Q369.76 0.6 367.51-1.88 365.26-4.35 365.26-9.1L365.26-9.1 365.26-25.4 367.01-25.4 367.01-9.4Q367.01-5 368.91-2.98 370.81-0.95 374.36-0.95L374.36-0.95Q375.81-0.95 377.18-1.35 378.56-1.75 379.61-2.53 380.66-3.3 381.28-4.53 381.91-5.75 381.91-7.4L381.91-7.4 381.91-25.4 383.66-25.4 383.66 0 381.91 0Z" opacity="1" transform="matrix(1,0,0,1,0,0)" fill="#77d4fc" class="undefined-text-1" data-fill-palette-color="secondary" id="text-1"></path></svg></g></svg></g></svg></g></svg></g><g transform="matrix(1,0,0,1,111.59628584409188,0)"><svg viewBox="0 0 172.32742831181622 172.32742831181622" height="172.32742831181622" width="172.32742831181622"><g><svg></svg></g><g id="icon-0"><svg viewBox="0 0 172.32742831181622 172.32742831181622" height="172.32742831181622" width="172.32742831181622"><g><path d="M0 86.164c0-47.587 38.577-86.164 86.164-86.164 47.587 0 86.164 38.577 86.163 86.164 0 47.587-38.577 86.164-86.163 86.163-47.587 0-86.164-38.577-86.164-86.163zM86.164 168.885c45.686 0 82.721-37.035 82.721-82.721 0-45.686-37.035-82.721-82.721-82.721-45.686 0-82.721 37.035-82.721 82.721 0 45.686 37.035 82.721 82.721 82.721z" data-fill-palette-color="accent" fill="#77d4fc" stroke="transparent"></path><ellipse rx="85.30207701434902" ry="85.30207701434902" cx="86.16371415590811" cy="86.16371415590811" fill="#77d4fc" stroke="transparent" stroke-width="0" fill-opacity="1" data-fill-palette-color="accent"></ellipse></g><g transform="matrix(1,0,0,1,36.31466228818119,36.313100209782476)"><svg viewBox="0 0 99.69810373545384 99.70122789225127" height="99.70122789225127" width="99.69810373545384"><g><svg xmlns="http://www.w3.org/2000/svg" xmlns:xlink="http://www.w3.org/1999/xlink" version="1.1" x="0" y="0" viewBox="18.350997924804688 18.347999572753906 63.30200958251953 63.303993225097656" enable-background="new 0 0 100 100" xml:space="preserve" height="99.70122789225127" width="99.69810373545384" class="icon-x-0" data-fill-palette-color="quaternary" id="x-0"><g fill="#ffffff" data-fill-palette-color="quaternary"><path fill="#ffffff" d="M80.951 48.597c-4.329-3.261-9.009-4.911-13.907-4.911-0.107 0-0.213 0-0.32 0.002-0.104-0.002-0.212-0.002-0.318-0.002-0.431 0-0.857 0.029-1.283 0.054 0.399-0.354 0.792-0.717 1.168-1.103 3.598-3.496 5.814-8.047 6.587-13.531 0.078-0.548-0.105-1.098-0.496-1.487-0.391-0.39-0.941-0.573-1.488-0.497-5.482 0.773-10.035 2.99-13.529 6.589-0.384 0.373-0.744 0.764-1.097 1.161 0.032-0.53 0.054-1.062 0.046-1.597 0.073-5.016-1.579-9.801-4.91-14.227-0.331-0.44-0.851-0.7-1.401-0.7-0.552 0-1.072 0.26-1.404 0.7-3.33 4.425-4.981 9.211-4.909 14.227-0.008 0.535 0.014 1.066 0.045 1.597-0.352-0.396-0.713-0.788-1.097-1.161-3.493-3.599-8.045-5.816-13.529-6.589-0.549-0.076-1.098 0.107-1.487 0.497-0.39 0.391-0.574 0.941-0.498 1.487 0.774 5.484 2.99 10.036 6.588 13.531 0.375 0.386 0.769 0.748 1.168 1.103-0.427-0.024-0.854-0.054-1.284-0.054-0.107 0-0.213 0-0.319 0.002-0.106-0.002-0.212-0.002-0.321-0.002-4.898 0-9.577 1.65-13.905 4.911-0.44 0.332-0.7 0.851-0.7 1.402 0 0.553 0.259 1.071 0.7 1.403 4.329 3.26 9.008 4.91 13.908 4.91 0.106 0 0.212 0 0.318-0.002 0.106 0.002 0.223-0.006 0.318 0.002 0.432 0 0.859-0.029 1.288-0.053-0.399 0.354-0.793 0.717-1.168 1.104-3.599 3.494-5.816 8.047-6.59 13.529-0.077 0.547 0.107 1.096 0.498 1.486 0.331 0.332 0.779 0.516 1.242 0.516 0.081 0 0.163-0.006 0.246-0.018 5.484-0.773 10.036-2.99 13.529-6.588 0.384-0.373 0.745-0.766 1.097-1.162-0.031 0.531-0.053 1.062-0.045 1.598-0.073 5.016 1.579 9.801 4.909 14.227 0.332 0.441 0.853 0.701 1.404 0.701 0.551 0 1.07-0.26 1.402-0.701 3.33-4.426 4.982-9.211 4.909-14.227 0.008-0.535-0.014-1.066-0.046-1.596 0.353 0.396 0.712 0.789 1.097 1.16 3.494 3.598 8.046 5.814 13.529 6.588 0.082 0.012 0.165 0.018 0.246 0.018 0.461 0 0.91-0.184 1.242-0.516 0.391-0.391 0.574-0.939 0.496-1.486-0.772-5.484-2.99-10.037-6.588-13.529-0.375-0.387-0.77-0.75-1.169-1.104 0.428 0.023 0.855 0.053 1.286 0.053 0.107 0 0.213 0 0.317-0.002 0.106 0.002 0.213 0.002 0.318 0.002 0.001 0 0 0 0.001 0 4.899 0 9.579-1.65 13.908-4.91 0.44-0.332 0.7-0.85 0.7-1.403C81.651 49.448 81.392 48.929 80.951 48.597zM48.784 49.509l1.217-1.215 1.214 1.215-1.214 1.215L48.784 49.509zM59.828 36.215c0.013-0.014 0.026-0.027 0.039-0.04 2.41-2.489 5.449-4.198 9.058-5.099-0.901 3.607-2.61 6.646-5.099 9.057-0.014 0.012-0.027 0.027-0.04 0.04-2.411 2.489-5.449 4.198-9.057 5.099C55.63 41.665 57.339 38.624 59.828 36.215zM47.2 33.247c-0.054-3.464 0.886-6.822 2.801-10.009 1.914 3.187 2.854 6.545 2.799 10.008 0 0.02 0 0.039 0 0.058 0.056 3.463-0.885 6.82-2.799 10.008-1.915-3.188-2.854-6.544-2.801-10.009C47.2 33.285 47.2 33.266 47.2 33.247zM31.077 31.076c3.608 0.9 6.647 2.609 9.056 5.099 0.014 0.013 0.027 0.026 0.04 0.04 2.489 2.409 4.199 5.448 5.098 9.057-3.606-0.901-6.646-2.61-9.057-5.101-0.013-0.013-0.027-0.026-0.039-0.039C33.686 37.722 31.977 34.684 31.077 31.076zM33.303 52.799c-0.009 0-0.018 0-0.027 0s-0.019 0-0.029 0c-0.096 0.002-0.192 0.004-0.289 0.004-3.361 0-6.62-0.941-9.72-2.803 3.099-1.861 6.358-2.801 9.717-2.801 0.098 0 0.195 0 0.292 0.002 0.019 0.001 0.038 0.001 0.056 0 0.098-0.002 0.195-0.002 0.292-0.002 3.359 0 6.619 0.939 9.717 2.801-3.099 1.862-6.359 2.803-9.719 2.803C33.496 52.803 33.399 52.801 33.303 52.799zM40.174 63.785c-0.014 0.014-0.027 0.025-0.041 0.039-2.409 2.488-5.448 4.197-9.056 5.1 0.899-3.607 2.608-6.646 5.098-9.059 0.013-0.012 0.026-0.025 0.041-0.039 2.409-2.488 5.448-4.197 9.056-5.098C44.371 58.336 42.662 61.375 40.174 63.785zM52.8 66.752c0.056 3.465-0.885 6.822-2.799 10.01-1.915-3.188-2.854-6.545-2.801-10.01 0-0.02 0-0.037 0-0.055-0.054-3.465 0.886-6.822 2.801-10.01 1.914 3.188 2.854 6.545 2.799 10.01C52.8 66.715 52.8 66.732 52.8 66.752zM68.924 68.924c-3.607-0.902-6.646-2.611-9.058-5.098-0.013-0.014-0.025-0.027-0.038-0.041-2.489-2.41-4.198-5.449-5.099-9.057 3.607 0.9 6.646 2.609 9.056 5.098 0.014 0.014 0.026 0.027 0.04 0.039C66.314 62.277 68.022 65.314 68.924 68.924zM67.042 52.803c-0.096 0-0.192-0.002-0.289-0.004-0.01 0-0.02 0-0.029 0-0.009 0-0.018 0-0.028 0-0.096 0.002-0.192 0.004-0.289 0.004-3.361 0-6.62-0.941-9.718-2.803 3.098-1.861 6.356-2.801 9.717-2.801 0.097 0 0.194 0 0.29 0.002 0.02 0.001 0.039 0.001 0.058 0 0.097-0.002 0.194-0.002 0.291-0.002 3.36 0 6.62 0.939 9.718 2.801C73.664 51.861 70.404 52.803 67.042 52.803z" data-fill-palette-color="quaternary"></path><circle fill="#ffffff" cx="66.725" cy="50" r="2.3" data-fill-palette-color="quaternary"></circle><circle fill="#ffffff" cx="33.276" cy="50" r="2.3" data-fill-palette-color="quaternary"></circle><circle fill="#ffffff" cx="50" cy="66.725" r="2.3" data-fill-palette-color="quaternary"></circle><circle fill="#ffffff" cx="50" cy="33.275" r="2.3" data-fill-palette-color="quaternary"></circle><circle fill="#ffffff" cx="61.827" cy="61.825" r="2.3" data-fill-palette-color="quaternary"></circle><circle fill="#ffffff" cx="38.174" cy="38.174" r="2.3" data-fill-palette-color="quaternary"></circle><circle fill="#ffffff" cx="38.174" cy="61.825" r="2.3" data-fill-palette-color="quaternary"></circle><circle fill="#ffffff" cx="61.827" cy="38.174" r="2.3" data-fill-palette-color="quaternary"></circle></g></svg></g></svg></g></svg></g></svg></g><g></g></svg></g></svg><rect width="374.4166368001838" height="247.2" fill="none" stroke="none" visibility="hidden"></rect></g></svg></g></svg>