<?xml version="1.0" encoding="iso-8859-1"?>
<!-- Generator: Adobe Illustrator 19.0.0, SVG Export Plug-In . SVG Version: 6.00 Build 0)  -->
<svg version="1.1" id="Layer_1" xmlns="http://www.w3.org/2000/svg" xmlns:xlink="http://www.w3.org/1999/xlink" x="0px" y="0px"
	 viewBox="0 0 508.4 508.4" style="enable-background:new 0 0 508.4 508.4;" xml:space="preserve">
<g>
	<path style="fill:#009688;" d="M145.2,288c-42.4,20.8-77.6,52.8-102,93.6c5.6,9.2,12,18.4,18.8,26.8c4.4-10.4,8.8-20.8,13.6-30.4
		C94.8,340.4,118.4,310,145.2,288z"/>
	<path style="fill:#009688;" d="M432.4,378c4.8,9.6,9.6,19.6,13.6,30c6.8-8.4,12.8-17.2,18.4-26.8c-24.4-40.4-59.6-72.8-101.6-93.2
		C389.6,310,413.2,340.4,432.4,378z"/>
</g>
<path style="fill:#4DB6AC;" d="M436.4,404.8c-3.6-8-7.2-16-10.8-23.2c-24-47.2-55.2-82.8-90-103.2c-2-1.2-4-2.4-6-3.2
	c-32.8,31.6-73.2,54.8-73.6,55.2c-1.2,0.8-2.8,0.8-4,0c-2-1.2-46-28.8-73.2-54.8c-2,1.2-4,2-6,3.2c-35.2,20.8-66,56-90,103.2
	c-4,7.6-7.6,15.2-10.8,23.2c-1.6,3.2-2.8,6.8-4.4,10.4c46,53.2,114.4,85.2,186.4,85.2c72.4,0,140.4-32,186.4-85.2
	C439.2,411.6,437.6,408.4,436.4,404.8z"/>
<path style="fill:#FFCC80;" d="M347.6,98l-0.4-1.6H218.8c-0.4,0-0.8,0-0.8,0h-0.4l-0.8,0.8c-9.2,10.4-20,15.6-32.4,15.6
	c-7.2,0-13.6-1.2-16.8-3.6l-3.2-2v44c0,51.6,41.2,93.2,92,93.2s92-42,92-93.2V99.6C348,99.2,348,99.2,347.6,98z"/>
<path style="fill:#B2DFDB;" d="M220.4,92.4h127.2v-2C343.2,42.4,303.2,6,254.4,6c-19.2,0-37.6,5.6-53.2,16.4l-2.8,2l3.2,1.6
	c16.4,7.6,26.8,23.6,26.8,41.6c0,8.4-2.4,15.2-6.4,22.4L220.4,92.4z"/>
<path style="fill:#BF360C;" d="M384.8,376.4h-27.2c-0.4,0-1.2,0-1.6,0v-27.2c0-2.8-2.4-9.2-6.4-9.2h-24c-4,0-5.6,6.4-5.6,9.2v27.2
	h-0.4c-0.4,0-1.2,0-1.6,0h-28c-4,0-5.6,6.4-5.6,8.8v24c0,2.4,1.6,3.6,3.2,3.6c0.4,0,0.8,0,1.2,0s0.8,0,1.2,0h27.6
	c0.4,1.2,1.2,3.6,1.6,4.8c0.4,1.6,0.8,2.8,1.2,3.2v24.4c0,1.2,0.4,3.6,3.6,3.6c0.4,0,0.8,0,1.2,0s0.8,0,1.2,0h24c0.4,0,0.8,0,1.2,0
	s0.8,0,1.2,0c3.6,0,4-2.4,4-3.6v-28c0-1.6,1.2-4,1.6-4.4h27.2c0.4,0,0.8,0,1.6,0c0.4,0,1.2,0,1.6,0c4,0,4-2.8,4-3.6v-24
	C392,382.4,388.4,376.4,384.8,376.4z"/>
<path style="fill:#EEEEEE;" d="M192.8,29.2c-3.2-0.8-6.8-1.2-10-1.2c-22,0-39.6,17.6-39.6,39.6c0,13.2,6.4,24.8,16,32l0,0
	c0.4,0,1.2,0,1.6,0.4c0.8,0.4,1.6,1.2,2,2.4c6,3.2,12.4,5.2,19.6,5.2c22,0,39.6-17.6,39.6-39.6C222.4,49.2,209.6,33.6,192.8,29.2z"
	/>
<g>
	<path style="fill:#2E7D32;" d="M159.2,99.2L159.2,99.2c0.4,0.4,0.8,0.8,1.2,1.2l0.4-0.8C160.4,99.2,159.6,99.2,159.2,99.2z"/>
	<path style="fill:#2E7D32;" d="M160.8,99.6l-0.4,0.8c0.8,0.4,1.6,0.8,2.4,1.6C162.4,100.8,161.6,100,160.8,99.6z"/>
	<path style="fill:#2E7D32;" d="M174.8,67.2c0,0.4,0,0.8,0,1.2l3.6-8C176,62,174.8,64.4,174.8,67.2z"/>
</g>
<path style="fill:#BCAAA4;" d="M182.4,77.2c2.8,0,5.6-1.2,7.2-3.2c1.6-2,2.8-4,2.4-6.4c-0.4-8.4-8.4-10-10-10c-2,0-3.6,0.8-4.8,1.6
	l-4.4,10C173.6,73.6,177.6,77.2,182.4,77.2z"/>
<path d="M254,508.4c-90,0-173.6-47.6-218.8-124.8c-0.8-1.2-0.8-2.8,0-4c31.6-54,82.4-94.4,143.2-113.2c1.6-0.4,2.8,0,4,0.8
	c23.2,23.2,62.4,48.8,72,54.4c8.8-5.2,43.6-26.8,71.6-54.4c1.2-1.2,2.4-1.6,4-0.8c60.4,18.8,111.2,58.8,143.2,113.2
	c0.8,1.2,0.8,2.8,0,4C427.6,460.8,344,508.4,254,508.4z M43.2,381.6c44,73.2,124.4,118.8,210.8,118.8s166.8-45.6,210.8-118.8
	c-30.4-50.8-78.4-88.4-135.2-106.8C296.8,306.4,256.4,330,256,330c-1.2,0.8-2.8,0.8-4,0c-2-1.2-46.4-29.2-73.6-55.2
	C121.6,293.2,73.6,330.8,43.2,381.6z"/>
<path d="M62.8,420c-0.4,0-0.8,0-1.6-0.4c-2-0.8-3.2-3.2-2.4-5.2c4.8-12.8,10.4-24.8,16.4-36.4c26.8-52.4,62-90.8,102-111.2
	c2-0.8,4.4-0.4,5.2,1.6c1.2,2,0.4,4.4-1.6,5.2c-38.4,19.6-72.4,56.8-98.4,108c-5.6,11.2-11.2,23.2-16,35.6
	C66,419.2,64.4,420,62.8,420z"/>
<path d="M445.2,420c-1.6,0-3.2-0.8-3.6-2.4c-4.8-12.4-10-24.4-16-35.6c-26-50.8-60-88-98.4-108c-2-1.2-2.8-3.6-1.6-5.2
	c1.2-2,3.6-2.8,5.2-1.6c40,20.4,75.2,58.8,102,111.2c6,11.6,11.6,24,16.4,36.4c0.8,2-0.4,4.4-2.4,5.2C446,420,445.6,420,445.2,420z"
	/>
<path d="M254,250.4c-54,0-98-44.4-98-99.2v-44.8c0-2.4,1.6-4,4-4s4,1.6,4,4v44.8c0,51.2,39.6,91.2,90,91.2s90-40,90-91.2V99.6
	c0-50.4-40.8-91.2-90.8-91.2c-21.6,0-40.4,6.4-56.4,19.2c-1.6,1.2-4.4,1.2-5.6-0.8c-1.2-1.6-1.2-4.4,0.8-5.6
	C209.2,7.2,230,0,253.2,0C307.6,0,352,44.4,352,99.2v51.6C352,206,308,250.4,254,250.4z"/>
<path d="M252,506.4c-2.4,0-4-1.6-4-4v-132c0-2.4,1.6-4,4-4s4,1.6,4,4v132C256,504.8,254.4,506.4,252,506.4z"/>
<path d="M252,342.4c-2.4,0-4-1.6-4-4v-12c0-2.4,1.6-4,4-4s4,1.6,4,4v12C256,340.8,254.4,342.4,252,342.4z"/>
<path id="SVGCleanerId_0" d="M336,434.4c-2.4,0-4-1.6-4-4v-72c0-2.4,1.6-4,4-4s4,1.6,4,4v72C340,432.8,338.4,434.4,336,434.4z"/>
<g>
	<path id="SVGCleanerId_0_1_" d="M336,434.4c-2.4,0-4-1.6-4-4v-72c0-2.4,1.6-4,4-4s4,1.6,4,4v72C340,432.8,338.4,434.4,336,434.4z"
		/>
</g>
<path d="M374,400.4h-72c-2.4,0-4-1.6-4-4s1.6-4,4-4h72c2.4,0,4,1.6,4,4S376.4,400.4,374,400.4z"/>
<path d="M346,100.4H218c-2.4,0-4-1.6-4-4s1.6-4,4-4h128c2.4,0,4,1.6,4,4S348.4,100.4,346,100.4z"/>
<path d="M346,84.4h-12c-2.4,0-4-1.6-4-4s1.6-4,4-4h12c2.4,0,4,1.6,4,4S348.4,84.4,346,84.4z"/>
<path d="M302,84.4h-76c-2.4,0-4-1.6-4-4s1.6-4,4-4h76c2.4,0,4,1.6,4,4S304.4,84.4,302,84.4z"/>
<path d="M182.4,115.2c-26.4,0-47.6-21.2-47.6-47.6S156,20,182.4,20c26.4,0,47.6,21.2,47.6,47.6C230,94,208.8,115.2,182.4,115.2z
	 M182.4,28c-22,0-39.6,17.6-39.6,39.6s17.6,39.6,39.6,39.6S222,89.6,222,67.6S204.4,28,182.4,28z"/>
<path d="M182.4,83.2c-8.8,0-16-7.2-16-16s7.2-16,16-16c2.4,0,4,1.6,4,4s-1.6,4-4,4c-4.4,0-8,3.6-8,8s3.6,8,8,8s8-3.6,8-8
	c0-2.4,1.6-4,4-4s4,1.6,4,4C198.4,76.4,191.2,83.2,182.4,83.2z"/>
<path d="M348.4,456.4h-25.2c-5.2,0-8.8-4-8.8-9.2v-29.6h-29.6c-5.2,0-9.2-3.6-9.2-8.8v-25.2c0-5.2,4-8.8,9.2-8.8h29.6v-29.6
	c0-5.2,3.6-9.2,8.8-9.2h25.2c5.2,0,8.8,4,8.8,9.2v29.6h29.6c5.2,0,9.2,3.6,9.2,8.8v25.2c0,5.2-3.6,8.8-9.2,8.8h-29.6v29.6
	C357.6,452.4,353.6,456.4,348.4,456.4z M285.2,382.8c-1.2,0-1.2,0.4-1.2,0.8v25.2c0,0.4,0,0.8,1.2,0.8h33.6c2.4,0,4,1.6,4,4v33.6
	c0,1.2,0.4,1.2,0.8,1.2h25.2c0.4,0,0.8,0,0.8-1.2v-33.6c0-2.4,1.6-4,4-4h33.6c1.2,0,1.2-0.4,1.2-0.8v-25.2c0-0.4,0-0.8-1.2-0.8
	h-33.6c-2.4,0-4-1.6-4-4v-33.6c0-1.2-0.4-1.2-0.8-1.2h-25.2c-0.4,0-0.8,0-0.8,1.2v33.6c0,2.4-1.6,4-4,4H285.2z"/>
<g>
</g>
<g>
</g>
<g>
</g>
<g>
</g>
<g>
</g>
<g>
</g>
<g>
</g>
<g>
</g>
<g>
</g>
<g>
</g>
<g>
</g>
<g>
</g>
<g>
</g>
<g>
</g>
<g>
</g>
</svg>
